<svg viewBox="0 0 44 52" xmlns="http://www.w3.org/2000/svg"><path d="M6.646 33c0 .917-.306 1.68-.917 2.292-.611.61-1.375.916-2.292.916a3.509 3.509 0 01-2.406-.916C.344 34.68 0 33.917 0 33V19.708c0-.84.344-1.566 1.031-2.177.688-.61 1.47-.916 2.35-.916.878 0 1.642.305 2.29.916.65.611.975 1.337.975 2.177V33zm1.146 4.698v-20.51h28.416v20.51c0 .993-.344 1.814-1.031 2.463-.688.65-1.49.974-2.406.974h-2.292v6.99c0 1.375-.535 2.31-1.604 2.807-1.07.497-2.12.497-3.151 0-1.031-.496-1.547-1.432-1.547-2.807v-6.99h-4.354v6.99c0 1.298-.516 2.215-1.547 2.75-1.031.535-2.082.554-3.151.057-1.07-.496-1.604-1.432-1.604-2.807v-6.99h-2.292c-.917 0-1.719-.324-2.406-.974-.688-.649-1.031-1.47-1.031-2.463zm-.115-21.656c0-2.368.668-4.565 2.005-6.589 1.337-2.024 3.113-3.61 5.328-4.755L12.833.688c-.152-.306-.095-.516.172-.63.268-.115.44-.058.516.171l2.291 4.01a15.866 15.866 0 016.245-1.26c2.177 0 4.22.42 6.13 1.26L30.48.23c.076-.229.248-.286.516-.172.267.115.324.325.172.63l-2.177 4.01c2.215 1.147 3.972 2.732 5.27 4.756 1.299 2.024 1.948 4.22 1.948 6.589H7.678zM16.73 9.74c0-.306-.114-.592-.344-.86a1.086 1.086 0 00-.859-.4c-.344 0-.63.133-.86.4-.229.268-.343.554-.343.86 0 .305.114.572.344.802.229.229.515.343.859.343s.63-.114.86-.343a1.1 1.1 0 00.343-.802zm12.948 0c0-.306-.115-.592-.344-.86-.229-.267-.496-.4-.802-.4-.305 0-.592.133-.86.4-.267.268-.4.554-.4.86 0 .305.133.572.4.802.268.229.555.343.86.343a1.1 1.1 0 00.802-.343 1.1 1.1 0 00.344-.802zm10.885 6.875c.917 0 1.72.305 2.407.916s1.03 1.337 1.03 2.177V33c0 .917-.343 1.68-1.03 2.292-.688.61-1.47.916-2.35.916a3.234 3.234 0 01-2.291-.916c-.65-.612-.974-1.375-.974-2.292V19.823c0-.917.325-1.68.974-2.292.65-.61 1.394-.916 2.234-.916z" fill="#5B5662" fill-rule="nonzero" opacity=".596"/></svg>