<svg viewBox="0 0 40 48" xmlns="http://www.w3.org/2000/svg"><path d="M33.51 25.213c-.07 1.276.178 2.553.745 3.83.993 2.624 2.908 4.61 5.745 5.957-.851 2.695-2.163 5.284-3.936 7.766-2.34 3.191-4.646 4.823-6.915 4.894-.993 0-2.27-.32-3.83-.958-1.702-.638-3.156-.957-4.362-.957-1.205 0-2.73.354-4.574 1.064-1.49.567-2.624.85-3.404.85-1.56.071-3.227-.78-5-2.553-1.348-1.347-2.695-3.191-4.043-5.532-1.064-1.914-1.88-3.652-2.447-5.212C.496 31.383 0 28.51 0 25.745c0-3.05.603-5.674 1.809-7.873 1.134-2.056 2.641-3.617 4.52-4.68 1.88-1.064 3.848-1.632 5.905-1.703 1.135 0 2.872.426 5.213 1.277 1.49.567 2.447.851 2.872.851.426 0 1.312-.248 2.66-.745 1.347-.496 2.411-.85 3.191-1.063 1.348-.355 2.553-.497 3.617-.426 4.043.355 7.057 1.95 9.043 4.787-3.617 2.128-5.39 5.142-5.32 9.043zM27.448 7.66v.106c-2.27 2.624-4.717 3.83-7.34 3.617-.284-2.837.602-5.39 2.659-7.66.851-.993 1.95-1.844 3.298-2.553C27.41.461 28.724.07 30 0c.213 2.837-.638 5.39-2.553 7.66z" fill="#5B5662" fill-rule="nonzero" opacity=".596"/></svg>