<svg viewBox="0 0 230 68" xmlns="http://www.w3.org/2000/svg"><g transform="translate(0 2)" fill="none" fill-rule="evenodd"><path d="M81.068 29.178l.182.06-.182-.06zm0 0l-.181-.06-2.18 8.718c-.242.646-.727.888-1.453.727 0 .08-.807-.122-2.422-.606l-1.574 3.754 6.539 1.695-1.332 5.45 3.27.847 1.452-5.328 2.543.605-1.332 5.45 3.27.726 1.453-5.449c3.068.646 5.49.686 7.266.121 2.018-.646 3.471-2.14 4.359-4.48 1.21-3.633.202-6.297-3.027-7.992 2.34-.566 3.713-2.18 4.117-4.844.323-1.857-.162-3.472-1.453-4.844-1.13-1.05-2.826-1.978-5.086-2.785l1.332-5.45-3.27-.726-1.332 5.207-2.664-.605 1.332-5.328-3.27-.848-1.331 5.45-6.66-1.575-.848 3.512 1.21.242c.808.161 1.171.242 1.09.242 1.13.323 1.656.969 1.575 1.937l-1.574 6.176.181.06zm13.26 9.869c-.404 1.614-1.776 2.422-4.117 2.422-1.211 0-2.987-.323-5.328-.969l-.727-.121 1.817-7.266.847.121c2.341.566 4.077 1.13 5.207 1.696 1.938 1.05 2.705 2.422 2.301 4.117zm1.09-10.656c-.404 1.453-1.574 2.22-3.512 2.3-1.05 0-2.543-.242-4.48-.726l-.606-.242 1.696-6.54.605.122c2.018.484 3.471.969 4.36 1.453 1.614.888 2.26 2.099 1.937 3.633z" fill="#FFF" fill-rule="nonzero"/><circle stroke="#FFF" stroke-width="3" cx="89" cy="32" r="32"/><path d="M158.87 65l-4.59-6.09-4.65 6.09h-3.21l6.27-8.13-5.97-7.77h3.21l4.38 5.73 4.35-5.73h3.15l-6 7.77 6.33 8.13h-3.27zm39.39-3.072V65h-23.568v-2.448l13.968-13.68c1.76-1.728 2.952-3.224 3.576-4.488.624-1.264.936-2.536.936-3.816 0-1.984-.68-3.528-2.04-4.632-1.36-1.104-3.304-1.656-5.832-1.656-3.936 0-6.992 1.248-9.168 3.744l-2.448-2.112c1.312-1.536 2.984-2.72 5.016-3.552 2.032-.832 4.328-1.248 6.888-1.248 3.424 0 6.136.808 8.136 2.424 2 1.616 3 3.832 3 6.648 0 1.728-.384 3.392-1.152 4.992-.768 1.6-2.224 3.44-4.368 5.52L179.78 61.928h18.48zm17.72 3.36c-2.592 0-4.904-.688-6.936-2.064-2.032-1.376-3.616-3.352-4.752-5.928-1.136-2.576-1.704-5.608-1.704-9.096 0-3.488.568-6.52 1.704-9.096 1.136-2.576 2.72-4.552 4.752-5.928 2.032-1.376 4.344-2.064 6.936-2.064 2.592 0 4.904.688 6.936 2.064 2.032 1.376 3.624 3.352 4.776 5.928 1.152 2.576 1.728 5.608 1.728 9.096 0 3.488-.576 6.52-1.728 9.096-1.152 2.576-2.744 4.552-4.776 5.928-2.032 1.376-4.344 2.064-6.936 2.064zm0-3.168c1.952 0 3.672-.544 5.16-1.632 1.488-1.088 2.648-2.672 3.48-4.752.832-2.08 1.248-4.592 1.248-7.536s-.416-5.456-1.248-7.536c-.832-2.08-1.992-3.664-3.48-4.752-1.488-1.088-3.208-1.632-5.16-1.632s-3.672.544-5.16 1.632c-1.488 1.088-2.648 2.672-3.48 4.752-.832 2.08-1.248 4.592-1.248 7.536s.416 5.456 1.248 7.536c.832 2.08 1.992 3.664 3.48 4.752 1.488 1.088 3.208 1.632 5.16 1.632z" fill="#FFF" fill-rule="nonzero"/><rect fill="#FFF" y="9" width="40" height="4" rx="2"/><rect fill="#FFF" x="10" y="23" width="30" height="4" rx="2"/><rect fill="#FFF" x="20" y="37" width="20" height="4" rx="2"/><rect fill="#FFF" x="30" y="51" width="10" height="4" rx="2"/></g></svg>