<svg width="55" height="63" xmlns="http://www.w3.org/2000/svg"><path d="M9.687 55c-.565 0-1.029-.182-1.392-.545-.363-.363-.545-.827-.545-1.392v-23.25c0-.566.182-1.03.545-1.393.363-.363.827-.545 1.392-.545h34.875c.565 0 1.03.182 1.393.545.363.363.545.827.545 1.393v23.25c0 .565-.182 1.029-.545 1.392-.363.363-.828.545-1.393.545H9.687zm25.188-23.25v19.375h7.75V31.75h-7.75zm-11.625 0v7.75H31v-7.75h-7.75zm0 11.625v7.75H31v-7.75h-7.75zM11.625 31.75v7.75h7.75v-7.75h-7.75zm0 11.625v7.75h7.75v-7.75h-7.75zM48.437.75c1.534 0 2.886.585 4.057 1.756 1.17 1.17 1.756 2.523 1.756 4.057v50.374c0 1.534-.585 2.887-1.756 4.057-1.17 1.17-2.523 1.756-4.057 1.756H5.812c-1.533 0-2.886-.585-4.056-1.756C.586 59.824 0 58.471 0 56.938V6.563c0-1.534.585-2.886 1.756-4.057C2.926 1.336 4.279.75 5.812.75h42.625zm1.938 56.188V24h-46.5v32.938c0 .484.202.928.605 1.332.404.403.848.605 1.332.605h42.625c.485 0 .929-.202 1.332-.605.404-.404.606-.848.606-1.333zm0-36.813V6.563c0-.485-.202-.929-.606-1.332-.403-.404-.847-.606-1.332-.606H5.812c-.484 0-.928.202-1.332.606-.403.403-.605.847-.605 1.332v13.562h46.5z" fill="#FFF" fill-rule="nonzero"/></svg>