<svg viewBox="0 0 43 43" xmlns="http://www.w3.org/2000/svg"><path d="M4.727 7.906a20.44 20.44 0 017.39-5.844C15.04.687 18.075 0 21.227 0c3.838 0 7.419.945 10.742 2.836 3.666 2.12 6.445 5.07 8.336 8.851l-17.618-.945c-2.52-.114-4.84.487-6.96 1.805s-3.581 3.122-4.383 5.414L4.727 7.906zm9.367 13.406c0-2.005.702-3.71 2.105-5.113 1.404-1.403 3.108-2.105 5.113-2.105 2.006 0 3.71.702 5.114 2.105 1.403 1.404 2.105 3.108 2.105 5.113 0 2.006-.702 3.71-2.105 5.114-1.404 1.403-3.108 2.105-5.114 2.105-2.005 0-3.71-.702-5.113-2.105-1.403-1.404-2.105-3.108-2.105-5.114zm27.07-7.648a20.436 20.436 0 011.375 9.797 21.106 21.106 0 01-3.266 9.367c-1.833 2.865-4.268 5.185-7.304 6.961-3.667 2.12-7.62 3.065-11.86 2.836l9.625-14.867c1.375-2.12 2.034-4.426 1.977-6.918-.057-2.492-.888-4.684-2.492-6.574l11.945-.602zM11.516 25.437c1.145 2.235 2.821 3.94 5.027 5.114s4.512 1.532 6.918 1.074l-5.414 10.742a20.677 20.677 0 01-9.195-3.781 21.582 21.582 0 01-6.489-7.52C.788 28.06 0 24.807 0 21.312c0-4.24 1.146-8.135 3.437-11.687l8.079 15.812z" fill="#5B5662" fill-rule="nonzero" opacity=".596"/></svg>