<svg viewBox="0 0 196 68" xmlns="http://www.w3.org/2000/svg"><g fill="none" fill-rule="evenodd"><path d="M134.87 67l-4.59-6.09-4.65 6.09h-3.21l6.27-8.13-5.97-7.77h3.21l4.38 5.73 4.35-5.73h3.15l-6 7.77 6.33 8.13h-3.27zm25.758-33.6V67h-3.456V36.472h-7.92V33.4h11.376zm21.608 33.888c-2.592 0-4.904-.688-6.936-2.064-2.032-1.376-3.616-3.352-4.752-5.928-1.136-2.576-1.704-5.608-1.704-9.096 0-3.488.568-6.52 1.704-9.096 1.136-2.576 2.72-4.552 4.752-5.928 2.032-1.376 4.344-2.064 6.936-2.064 2.592 0 4.904.688 6.936 2.064 2.032 1.376 3.624 3.352 4.776 5.928 1.152 2.576 1.728 5.608 1.728 9.096 0 3.488-.576 6.52-1.728 9.096-1.152 2.576-2.744 4.552-4.776 5.928-2.032 1.376-4.344 2.064-6.936 2.064zm0-3.168c1.952 0 3.672-.544 5.16-1.632 1.488-1.088 2.648-2.672 3.48-4.752.832-2.08 1.248-4.592 1.248-7.536s-.416-5.456-1.248-7.536c-.832-2.08-1.992-3.664-3.48-4.752-1.488-1.088-3.208-1.632-5.16-1.632s-3.672.544-5.16 1.632c-1.488 1.088-2.648 2.672-3.48 4.752-.832 2.08-1.248 4.592-1.248 7.536s.416 5.456 1.248 7.536c.832 2.08 1.992 3.664 3.48 4.752 1.488 1.088 3.208 1.632 5.16 1.632z" fill="#FFF" fill-rule="nonzero"/><path d="M77 44.247L94.954 33.4 77 2.953 59.046 33.399 77 44.247zm-14.808-.361L77 65.358l14.808-21.472L77 52.824l-14.808-8.938z" stroke="#FFF" stroke-width="3"/><path fill="#FFF" fill-rule="nonzero" d="M76.81 65L64 45l12.81 7.413L90 45z"/><rect fill="#FFF" y="11" width="40" height="4" rx="2"/><rect fill="#FFF" x="10" y="25" width="30" height="4" rx="2"/><rect fill="#FFF" x="20" y="39" width="20" height="4" rx="2"/><rect fill="#FFF" x="30" y="53" width="10" height="4" rx="2"/></g></svg>