<svg viewBox="0 0 140 62" xmlns="http://www.w3.org/2000/svg"><g fill="#FFF" fill-rule="nonzero"><path d="M132.547 31.31L119.1 35.658l-.923-2.854 21.432-6.931-5.207 21.914-2.918-.693 3.266-13.749-6.925 7.5-.104.101c-9.26 8.253-19.063 12.41-29.367 12.41-14.225 0-27.463-7.91-39.683-23.578l-.922-1.183 2.366-1.845.922 1.183C72.734 42.93 85.162 50.355 98.355 50.355c9.505 0 18.597-3.846 27.317-11.6l6.875-7.445z"/><path d="M25.284 10.18c2.784-2.784 6.162-4.976 10.132-6.574 3.351-1.392 6.96-2.32 10.827-2.784 3.3-.413 6.342-.413 9.126 0 2.578.31 4.228.825 4.95 1.547.722.721 1.237 2.371 1.547 4.95.412 2.783.412 5.826 0 9.125-.464 3.867-1.392 7.477-2.784 10.828-1.599 3.97-3.79 7.347-6.574 10.131-3.506 3.506-7.992 6.084-13.457 7.734a40.337 40.337 0 01-13.38 1.78l-1.856 13.147a2.602 2.602 0 01-.735 1.353c-.387.387-.877.567-1.47.542a1.832 1.832 0 01-1.43-.735l-7.27-11.446-11.446-7.27a1.832 1.832 0 01-.735-1.431c-.026-.593.154-1.083.541-1.47a2.602 2.602 0 011.354-.734l13.147-1.856a40.337 40.337 0 011.78-13.38c1.65-5.465 4.227-9.951 7.733-13.457zm24.749 24.749c2.99-2.991 5.233-6.78 6.728-11.37 1.186-3.66 1.83-7.501 1.934-11.523.103-3.403-.206-5.775-.928-7.115-1.34-.722-3.713-1.031-7.115-.928-4.022.103-7.863.747-11.524 1.933-4.589 1.495-8.379 3.738-11.369 6.729-3.042 3.042-5.336 6.986-6.883 11.833-1.238 4.124-1.779 8.275-1.624 12.451l.077 3.171-12.374 1.702 8.507 5.414 5.414 8.507 1.701-12.374 3.171.077c4.177.155 8.327-.387 12.452-1.624 4.846-1.547 8.79-3.841 11.833-6.883zm-6.42-19.567a2.531 2.531 0 011.857-.774c.722 0 1.34.258 1.856.774.516.515.773 1.134.773 1.856 0 .722-.257 1.34-.773 1.856a2.531 2.531 0 01-1.856.773c-.722 0-1.34-.258-1.856-.773a2.531 2.531 0 01-.774-1.856c0-.722.258-1.34.774-1.856z"/></g></svg>