<svg width="75" height="75" xmlns="http://www.w3.org/2000/svg"><path d="M59.752 35.65c0 .995-.345 1.865-1.036 2.61-.69.747-1.56 1.092-2.61 1.037l-15.993.082c-.994 0-1.864-.372-2.61-1.118-.745-.746-1.118-1.616-1.118-2.61l.082-15.993c-.055-1.05.277-1.934.995-2.652.718-.718 1.602-1.05 2.651-.994l15.993-.083c.995 0 1.865.373 2.61 1.119.746.745 1.12 1.615 1.12 2.61l-.084 15.993zm-19.556 0h15.91l-.083-15.992h-15.91l.083 15.993zm-10.44-6.297l-1.243 8.37c-.553 3.314-1.99 6.131-4.31 8.451l-9.943 9.944c-.166.166-.387.249-.663.249s-.497-.083-.663-.249l-1.326-1.326c-.165-.166-.248-.387-.248-.663s.083-.497.248-.663l9.944-9.943c1.768-1.768 2.845-3.895 3.232-6.38l1.243-8.37c.11-.553.013-1.036-.29-1.45a1.835 1.835 0 00-1.243-.746c-.525-.083-.98.041-1.368.373-.386.331-.635.718-.745 1.16l-1.078 6.215c-.22 1.326-.842 2.279-1.864 2.859-1.022.58-2.155.745-3.397.497a5.188 5.188 0 01-3.066-1.823c-.801-.967-1.12-2.251-.953-3.853l1.077-11.85L25.447 7.808c.607-.607.8-1.243.58-1.906-.221-.662-.663-1.104-1.326-1.325-.663-.221-1.27-.056-1.823.497L8.79 19.16c-.332.331-.497.718-.497 1.16l-2.32 19.887c-.166 1.823-.912 3.563-2.238 5.22-.22.221-.47.332-.746.332s-.497-.083-.662-.249l-1.326-1.325a1.008 1.008 0 01-.29-.622.721.721 0 01.207-.621c.773-1.105 1.243-2.127 1.409-3.066l2.237-19.97a5.283 5.283 0 011.574-3.398L20.226 2.422C21.331 1.317 22.671.78 24.246.806c1.573.028 2.9.58 3.977 1.658C29.3 3.54 29.81 4.88 29.756 6.482c-.056 1.603-.636 2.956-1.74 4.06L16.662 21.896l-.911 11.187c-.056.386.082.69.414.911.331.221.663.277.994.166.332-.11.553-.387.663-.829l.829-5.634c.22-1.326.828-2.459 1.823-3.398.994-.939 2.127-1.436 3.397-1.491 2.044-.056 3.646.663 4.806 2.154.995 1.326 1.354 2.79 1.078 4.392zm43.503 26.102L59.172 69.542c-.939.939-2.044 1.491-3.314 1.657l-19.97 2.238c-.995.11-2.017.58-3.067 1.408a1.47 1.47 0 01-.662.166.795.795 0 01-.58-.249l-1.326-1.325c-.221-.221-.332-.47-.332-.746s.138-.497.415-.663c1.602-1.381 3.314-2.155 5.137-2.32l19.97-2.238c.387-.055.746-.248 1.078-.58l14.086-14.087c.553-.552.719-1.16.498-1.823-.221-.663-.663-1.104-1.326-1.325-.663-.221-1.298-.028-1.906.58L55.526 62.58l-11.85 1.078c-1.546.11-2.817-.221-3.811-.995A4.94 4.94 0 0138 59.64c-.248-1.243-.082-2.376.498-3.398.58-1.022 1.56-1.67 2.941-1.947l6.132-.994c.497-.056.898-.29 1.202-.705.304-.414.414-.884.331-1.408a1.835 1.835 0 00-.746-1.243c-.414-.304-.897-.4-1.45-.29l-8.369 1.243c-2.486.386-4.613 1.463-6.38 3.231l-9.944 9.944c-.166.166-.387.248-.663.248s-.497-.082-.663-.248l-1.326-1.326c-.165-.166-.248-.387-.248-.663s.083-.497.248-.663l9.944-9.943c2.375-2.376 5.22-3.785 8.535-4.226l8.286-1.326c1.602-.277 3.066.083 4.392 1.077 1.492 1.16 2.21 2.762 2.155 4.806-.056 1.27-.553 2.403-1.492 3.397-.94.995-2.072 1.602-3.397 1.823l-5.635.83c-.442.11-.718.33-.829.662-.11.331-.055.663.166.994.22.332.525.47.911.415l11.187-.912 11.352-11.352c1.105-1.105 2.459-1.685 4.06-1.74 1.603-.056 2.942.455 4.02 1.533 1.077 1.077 1.63 2.403 1.657 3.977.028 1.575-.511 2.914-1.616 4.019z" fill="#FFF" fill-rule="nonzero"/></svg>