<svg width="157" height="87" xmlns="http://www.w3.org/2000/svg"><g fill="none" fill-rule="evenodd"><path d="M66.665 9.635c-2.226 2.226-3.725 4.838-4.496 7.835a17.771 17.771 0 000 8.99c.771 2.997 2.27 5.609 4.496 7.835a18.062 18.062 0 005.48 3.768v29.113l6.85 6.85 8.22-8.22-5.48-5.48 5.48-5.48-5.48-5.48 4.11-4.11v-7.193a18.062 18.062 0 005.48-3.768c2.226-2.226 3.725-4.838 4.495-7.835.771-2.996.771-5.993 0-8.99-.77-2.997-2.269-5.609-4.495-7.835S86.487 5.91 83.49 5.14a17.771 17.771 0 00-8.99 0c-2.997.77-5.609 2.269-7.835 4.495zm-2.74-2.74c2.74-2.74 5.936-4.595 9.59-5.566 3.653-.97 7.307-.97 10.96 0 3.653.97 6.85 2.826 9.59 5.566 2.74 2.74 4.595 5.937 5.566 9.59.97 3.653.97 7.307 0 10.96-.97 3.653-2.826 6.85-5.566 9.59a20.618 20.618 0 01-4.367 3.34v5.308c0 .8-.285 1.485-.856 2.055l-1.627 1.627 3.425 3.425c.57.571.856 1.256.856 2.055 0 .8-.285 1.485-.856 2.055l-3.425 3.426 3.425 3.425c.57.57.856 1.255.856 2.055 0 .799-.285 1.484-.856 2.055l-9.59 9.59c-.57.57-1.256.856-2.055.856-.8 0-1.484-.285-2.055-.856l-7.792-7.792a2.803 2.803 0 01-.856-2.055v-27.23a20.618 20.618 0 01-4.367-3.339c-2.74-2.74-4.596-5.937-5.566-9.59a20.995 20.995 0 010-10.96c.97-3.653 2.826-6.85 5.566-9.59zm13.357 5.137c-.456.457-.685 1.028-.685 1.713s.229 1.256.685 1.712c.457.457 1.028.685 1.713.685s1.256-.228 1.712-.685c.457-.456.685-1.027.685-1.712s-.228-1.256-.685-1.713c-.456-.456-1.027-.685-1.712-.685s-1.256.229-1.713.685zm-2.397-2.397c1.142-1.142 2.512-1.713 4.11-1.713 1.598 0 2.968.571 4.11 1.713 1.142 1.142 1.712 2.512 1.712 4.11 0 1.598-.57 2.968-1.712 4.11-1.142 1.142-2.512 1.713-4.11 1.713-1.598 0-2.968-.571-4.11-1.713-1.142-1.142-1.713-2.512-1.713-4.11 0-1.598.571-2.968 1.713-4.11z" fill="#FFF" fill-rule="nonzero"/><g transform="translate(0 5.665)" stroke="#FFF" stroke-width="4"><circle cx="10.5" cy="10.5" r="8.5"/><circle cx="10.5" cy="40.5" r="8.5"/><circle cx="10.5" cy="70.5" r="8.5"/><path d="M19.5 10.5h7M36.5 27.5h7M20.5 40.5H52M28 11.335l7 15M52 53.5H36.5M26.5 70.5h-7M34.788 54.335l-7 15" stroke-linecap="square"/></g><g transform="matrix(-1 0 0 1 157 5.665)" stroke="#FFF" stroke-width="4"><circle cx="10.5" cy="10.5" r="8.5"/><circle cx="10.5" cy="40.5" r="8.5"/><circle cx="10.5" cy="70.5" r="8.5"/><path d="M19.5 10.5h7M36.5 27.5h7M20.5 40.5H52M28 11.335l7 15M52 53.5H36.5M26.5 70.5h-7M34.788 54.335l-7 15" stroke-linecap="square"/></g></g></svg>