<svg viewBox="0 0 23 23" xmlns="http://www.w3.org/2000/svg" xmlns:xlink="http://www.w3.org/1999/xlink">
    <g stroke="none" stroke-width="1" fill="none" fill-rule="evenodd">
        <g fill="#FFFFFF" fill-rule="nonzero">
            <path d="M5.078,23 L0.355,23 L0.355,7.816 L5.078,7.816 L5.078,23 L5.078,23 Z M2.742,5.734 C1.997,5.734 1.354,5.464 0.812,4.922 C0.271,4.38 0,3.737 0,2.992 C0,2.247 0.27,1.604 0.813,1.062 C1.353,0.522 1.996,0.25 2.742,0.25 C3.486,0.25 4.129,0.52 4.671,1.063 C5.213,1.604 5.483,2.247 5.483,2.993 C5.483,3.737 5.213,4.38 4.671,4.922 C4.129,5.464 3.486,5.734 2.741,5.734 L2.742,5.734 Z M22.75,23 L18.027,23 L18.027,15.586 C18.027,14.367 17.926,13.487 17.723,12.946 C17.35,12.031 16.623,11.574 15.539,11.574 C14.456,11.574 13.694,11.98 13.254,12.793 C12.915,13.403 12.746,14.3 12.746,15.484 L12.746,23 L8.074,23 L8.074,7.816 L12.594,7.816 L12.594,9.898 L12.644,9.898 C12.983,9.221 13.524,8.663 14.27,8.223 C15.082,7.681 16.03,7.41 17.113,7.41 C19.313,7.41 20.854,8.104 21.734,9.492 C22.411,10.609 22.75,12.336 22.75,14.672 L22.75,23 Z" id="Shape"></path>
        </g>
    </g>
</svg>
