<svg viewBox="0 0 49 48" xmlns="http://www.w3.org/2000/svg"><path d="M22.711 24.598c0-.489.158-.926.472-1.31a1.49 1.49 0 011.206-.577c.489 0 .926.158 1.31.472.384.315.576.716.576 1.206 0 .489-.157.926-.471 1.31a1.49 1.49 0 01-1.206.576c-.489 0-.926-.157-1.31-.471a1.49 1.49 0 01-.577-1.206zm1.352 23.403c13.253 0 23.981-10.747 23.981-24S37.316 0 24.063 0C10.81 0 0 10.748 0 24c0 13.254 10.81 24.001 24.063 24.001zm15.57-13.82c0 .208.485.554 1.454 1.039l.208.208a19.366 19.366 0 01-5.298 5.453 21.105 21.105 0 01-6.96 3.169l-.416-1.87c0-.208-.138-.312-.415-.312-.139 0-.225.052-.26.156a.855.855 0 00-.052.26l.416 1.974a21.14 21.14 0 01-4.156.415c-3.809 0-7.375-1.004-10.7-3.013l.208-.415c.693-1.039 1.04-1.645 1.04-1.818 0-.173-.105-.26-.313-.26-.207 0-.623.52-1.246 1.559l-.312.519a20.142 20.142 0 01-5.558-5.402 20.994 20.994 0 01-3.168-7.064l1.974-.415c.208-.07.311-.174.311-.312a.35.35 0 00-.155-.312.505.505 0 00-.26-.104L4 28.052a19.114 19.114 0 01-.415-3.948c0-3.947 1.038-7.583 3.116-10.907l.416.207c.9.624 1.437.935 1.61.935.173 0 .26-.104.26-.311 0-.208-.485-.624-1.455-1.247l-.415-.208A20.43 20.43 0 0112.57 7.12c2.182-1.49 4.52-2.511 7.013-3.065l.415 1.974c.07.138.19.208.364.208.173 0 .277-.052.311-.156a.855.855 0 00.052-.26l-.415-1.87c1.385-.277 2.666-.415 3.843-.415 3.948 0 7.584 1.038 10.908 3.116v.104c-.762 1.039-1.143 1.662-1.143 1.87 0 .208.122.311.364.311s.64-.554 1.195-1.662l.207-.207a20.358 20.358 0 015.402 5.35 21.114 21.114 0 013.117 6.908l-1.662.415c-.208 0-.312.139-.312.416 0 .069.052.138.156.208.104.069.19.103.26.103l1.662-.415c.277 1.385.415 2.735.415 4.051 0 3.879-1.004 7.445-3.012 10.7l-.52-.415c-.692-.416-1.073-.624-1.143-.624-.277 0-.415.139-.415.416zm-4.274-22.93L21.343 21.92 13.49 37.977c9.361-7.382 14.112-11.165 14.252-11.352l7.617-15.374z" fill="#5B5662" fill-rule="nonzero" opacity=".596"/></svg>