<svg width="69" height="69" xmlns="http://www.w3.org/2000/svg"><path d="M31.42 27.003a6.458 6.458 0 013.054 2.257 5.827 5.827 0 011.196 3.586c0 1.594-.554 2.966-1.66 4.118-1.107 1.15-2.457 1.77-4.051 1.859v2.125c0 .266-.11.509-.332.73-.222.222-.465.332-.73.332H26.77c-.265 0-.509-.11-.73-.332-.221-.221-.332-.464-.332-.73v-2.125c-1.505-.089-2.878-.62-4.117-1.594a1.017 1.017 0 01-.465-.73c-.044-.31.066-.598.332-.864l1.594-1.46c.354-.355.796-.377 1.328-.067.531.31 1.106.465 1.726.465h3.719c.443 0 .819-.177 1.129-.531.31-.355.465-.753.465-1.196 0-.442-.11-.819-.332-1.129-.222-.31-.51-.509-.864-.597l-5.976-1.727a6.458 6.458 0 01-3.055-2.258 5.827 5.827 0 01-1.195-3.585c0-1.594.553-2.967 1.66-4.118 1.107-1.15 2.457-1.77 4.05-1.86v-2.124c0-.266.112-.51.333-.73.221-.222.465-.333.73-.333h2.125c.266 0 .51.111.73.332.222.222.333.465.333.731v2.125c1.505.088 2.877.62 4.117 1.594.266.177.42.42.465.73.044.31-.067.598-.332.863l-1.594 1.461c-.354.355-.797.377-1.328.067a3.367 3.367 0 00-1.727-.465h-3.718c-.443 0-.82.177-1.13.531-.31.354-.464.753-.464 1.196 0 .442.11.819.332 1.128.221.31.509.51.863.598l5.977 1.727zm36.257 37.585c.355.266.532.62.532 1.063 0 .443-.177.841-.532 1.195l-1.195 1.196c-.354.354-.752.53-1.195.53-.443 0-.797-.176-1.063-.53L47.092 50.909a1.262 1.262 0 01-.532-1.063v-1.328c-2.479 2.302-5.334 4.095-8.566 5.38-3.232 1.283-6.619 1.925-10.16 1.925-5.047 0-9.673-1.24-13.879-3.719-4.206-2.479-7.548-5.821-10.027-10.027-2.48-4.206-3.72-8.832-3.72-13.88 0-5.046 1.24-9.672 3.72-13.878 2.479-4.206 5.821-7.548 10.027-10.027C18.161 1.812 22.787.573 27.834.573c5.047 0 9.673 1.24 13.879 3.719 4.205 2.479 7.548 5.821 10.027 10.027 2.48 4.206 3.719 8.832 3.719 13.879 0 3.542-.642 6.928-1.926 10.16-1.284 3.232-3.077 6.087-5.379 8.566h1.328c.443 0 .797.178 1.063.532l17.132 17.132zM27.834 51.573c4.25 0 8.168-1.04 11.754-3.121 3.586-2.08 6.419-4.914 8.5-8.5 2.08-3.586 3.12-7.504 3.12-11.754s-1.04-8.168-3.12-11.754c-2.081-3.586-4.914-6.42-8.5-8.5-3.586-2.08-7.504-3.121-11.754-3.121s-8.168 1.04-11.754 3.121c-3.586 2.08-6.42 4.914-8.5 8.5-2.08 3.586-3.121 7.504-3.121 11.754s1.04 8.168 3.121 11.754c2.08 3.586 4.914 6.42 8.5 8.5 3.586 2.08 7.504 3.12 11.754 3.12z" fill="#FFF" fill-rule="nonzero"/></svg>