<svg width="61" height="60" xmlns="http://www.w3.org/2000/svg"><g fill="#FFF" fill-rule="nonzero"><path d="M24.95 55.179c0 1.027-.356 1.926-1.07 2.696-.713.77-1.612 1.127-2.696 1.07l-16.52.086c-1.027 0-1.926-.385-2.697-1.156-.77-.77-1.155-1.669-1.155-2.696l.085-16.52c-.057-1.085.286-1.998 1.028-2.74.741-.741 1.654-1.084 2.739-1.027l16.52-.085c1.027 0 1.926.385 2.696 1.155.77.77 1.156 1.67 1.156 2.697l-.086 16.52zm-20.2 0h16.434l-.085-16.52H4.664l.085 16.52zM59.95 55.179c0 1.027-.356 1.926-1.07 2.696-.713.77-1.612 1.127-2.696 1.07l-16.52.086c-1.027 0-1.926-.385-2.697-1.156-.77-.77-1.155-1.669-1.155-2.696l.085-16.52c-.057-1.085.286-1.998 1.028-2.74.741-.741 1.654-1.084 2.739-1.027l16.52-.085c1.027 0 1.926.385 2.696 1.155.77.77 1.156 1.67 1.156 2.697l-.086 16.52zm-20.2 0h16.434l-.085-16.52H39.664l.085 16.52zM59.95 21.179c0 1.027-.356 1.926-1.07 2.696-.713.77-1.612 1.127-2.696 1.07l-16.52.086c-1.027 0-1.926-.385-2.697-1.156-.77-.77-1.155-1.669-1.155-2.696l.085-16.52c-.057-1.085.286-1.998 1.028-2.74.741-.741 1.654-1.084 2.739-1.027l16.52-.085c1.027 0 1.926.385 2.696 1.155.77.77 1.156 1.67 1.156 2.697l-.086 16.52zm-20.2 0h16.434L56.1 4.659H39.664l.085 16.52z"/></g></svg>