<svg viewBox="0 0 27 23" xmlns="http://www.w3.org/2000/svg"><path d="M26.191 2.55l-3.984 18.634c-.156.664-.42 1.084-.791 1.26-.371.175-.83.107-1.377-.206l-6.035-4.453-2.93 2.813a3.432 3.432 0 01-.469.41c-.195.117-.449.176-.761.176l.468-6.153L21.504 4.895c.156-.118.205-.225.146-.323-.058-.097-.175-.136-.351-.117-.176.02-.362.088-.557.205L6.914 13.39.938 11.517c-.665-.196-.977-.489-.938-.88.04-.39.45-.741 1.23-1.054L24.492.617c.586-.195 1.055-.127 1.406.205.352.332.45.909.293 1.729z" fill="#FFF" fill-rule="nonzero"/></svg>