<svg viewBox="0 0 24 20" xmlns="http://www.w3.org/2000/svg"><path d="M21.516 5.125c.03.125.046.328.046.61 0 2.25-.546 4.421-1.64 6.515-1.125 2.219-2.703 3.984-4.735 5.297-2.218 1.469-4.765 2.203-7.64 2.203-2.75 0-5.266-.734-7.547-2.203.344.031.734.047 1.172.047 2.281 0 4.328-.703 6.14-2.11-1.093 0-2.054-.32-2.882-.96a4.895 4.895 0 01-1.711-2.415c.312.032.61.047.89.047.438 0 .875-.047 1.313-.14-1.125-.25-2.063-.828-2.813-1.735C1.36 9.375.984 8.344.984 7.188v-.094a4.634 4.634 0 002.203.656 5.46 5.46 0 01-1.593-1.781 4.728 4.728 0 01-.61-2.367c0-.86.235-1.68.704-2.461a13.572 13.572 0 004.476 3.656 13.625 13.625 0 005.648 1.5 6.832 6.832 0 01-.093-1.125c0-.875.218-1.695.656-2.461A4.817 4.817 0 0114.156.906 4.754 4.754 0 0116.594.25c.718 0 1.383.14 1.992.422.61.281 1.148.656 1.617 1.125a10.014 10.014 0 003.14-1.172c-.374 1.156-1.093 2.063-2.156 2.719.938-.125 1.875-.39 2.813-.797-.688 1-1.516 1.86-2.484 2.578z" fill="#FFF" fill-rule="nonzero"/></svg>