<svg width="93" height="94" xmlns="http://www.w3.org/2000/svg"><g transform="translate(0 1)" fill="none" fill-rule="evenodd"><path d="M26.156-.406c4.711 0 9.07 1.178 13.078 3.533 4.008 2.356 7.19 5.537 9.545 9.545 2.356 4.008 3.533 8.367 3.533 13.078 0 4.711-1.177 9.07-3.533 13.078-2.355 4.008-5.537 7.19-9.545 9.545-4.008 2.356-8.367 3.533-13.078 3.533-4.71 0-9.07-1.177-13.078-3.533-4.008-2.355-7.19-5.537-9.545-9.545C1.178 34.82 0 30.461 0 25.75c0-4.71 1.178-9.07 3.533-13.078 2.356-4.008 5.537-7.19 9.545-9.545C17.086.772 21.445-.406 26.156-.406zm13.5 44.508v-1.477c0-1.828-.668-3.41-2.004-4.746-1.336-1.336-2.918-2.004-4.746-2.004-.281 0-.808.105-1.582.316-1.758.563-3.48.844-5.168.844-1.687 0-3.41-.281-5.168-.844-.773-.21-1.3-.316-1.582-.316-1.828 0-3.41.668-4.746 2.004-1.336 1.336-2.004 2.918-2.004 4.746v1.477c4.008 2.953 8.508 4.43 13.5 4.43 4.992 0 9.492-1.477 13.5-4.43zm3.27-2.954c1.898-2.039 3.375-4.394 4.43-7.066a22.493 22.493 0 001.581-8.332c0-4.148-1.02-7.963-3.058-11.443a22.8 22.8 0 00-8.28-8.28C34.12 3.988 30.306 2.97 26.157 2.97c-4.148 0-7.963 1.02-11.443 3.058a22.8 22.8 0 00-8.28 8.28c-2.038 3.48-3.058 7.295-3.058 11.443 0 2.883.527 5.66 1.582 8.332 1.055 2.672 2.531 5.027 4.43 7.066.422-2.46 1.564-4.517 3.427-6.17 1.864-1.652 4.061-2.478 6.592-2.478.633 0 1.477.176 2.531.527 1.477.422 2.883.633 4.22.633 1.335 0 2.741-.21 4.218-.633 1.055-.351 1.898-.527 2.531-.527 2.531 0 4.729.826 6.592 2.479 1.863 1.652 3.006 3.709 3.428 6.17zm-16.77-29.742c2.531 0 4.711.914 6.54 2.743 1.827 1.828 2.741 4.007 2.741 6.539 0 2.53-.914 4.71-2.742 6.539-1.828 1.828-4.008 2.742-6.539 2.742-2.531 0-4.71-.914-6.539-2.742-1.828-1.829-2.742-4.008-2.742-6.54 0-2.53.914-4.71 2.742-6.538 1.828-1.829 4.008-2.743 6.54-2.743zm0 15.188c1.617 0 3.006-.58 4.166-1.74 1.16-1.16 1.74-2.55 1.74-4.166 0-1.618-.58-3.006-1.74-4.166-1.16-1.16-2.549-1.74-4.166-1.74-1.617 0-3.006.58-4.166 1.74-1.16 1.16-1.74 2.548-1.74 4.166 0 1.617.58 3.005 1.74 4.166 1.16 1.16 2.549 1.74 4.166 1.74zM76.469 36.156c1.77 0 3.276.62 4.515 1.86 1.24 1.24 1.86 2.744 1.86 4.515 0 1.771-.62 3.276-1.86 4.516-1.24 1.24-2.744 1.86-4.515 1.86-1.771 0-3.276-.62-4.516-1.86-1.24-1.24-1.86-2.745-1.86-4.516 0-1.77.62-3.276 1.86-4.515 1.24-1.24 2.745-1.86 4.516-1.86zm0 9.563c.885 0 1.638-.31 2.258-.93.62-.62.93-1.372.93-2.258 0-.885-.31-1.638-.93-2.258a3.074 3.074 0 00-2.258-.93c-.886 0-1.638.31-2.258.93-.62.62-.93 1.373-.93 2.258 0 .886.31 1.638.93 2.258.62.62 1.372.93 2.258.93zm0-15.938c2.966 0 5.71.742 8.234 2.225a16.641 16.641 0 016.01 6.01c1.483 2.523 2.224 5.268 2.224 8.234s-.741 5.711-2.224 8.234a16.641 16.641 0 01-6.01 6.01c-2.523 1.483-5.268 2.225-8.234 2.225s-5.711-.742-8.235-2.225a16.641 16.641 0 01-6.01-6.01C60.743 51.961 60 49.216 60 46.25s.742-5.71 2.225-8.234a16.641 16.641 0 016.01-6.01c2.523-1.483 5.268-2.225 8.234-2.225zm0 29.75c1.638 0 3.187-.276 4.648-.83 1.461-.553 2.79-1.339 3.985-2.357a5.356 5.356 0 00-1.96-1.893 5.804 5.804 0 00-2.623-.763c-1.372.442-2.711.664-4.017.664-1.306 0-2.645-.222-4.018-.664a5.913 5.913 0 00-2.69.763 5.356 5.356 0 00-1.958 1.893A13.446 13.446 0 0071.82 58.7c1.461.554 3.01.83 4.649.83zm10.824-5.578c1.638-2.302 2.457-4.87 2.457-7.703 0-2.39-.598-4.604-1.793-6.64a13.393 13.393 0 00-4.848-4.848c-2.036-1.196-4.25-1.793-6.64-1.793-2.39 0-4.604.597-6.64 1.793a13.393 13.393 0 00-4.849 4.847c-1.195 2.037-1.793 4.25-1.793 6.641 0 2.833.82 5.401 2.458 7.703a9.234 9.234 0 013.087-2.523 8.445 8.445 0 013.885-.93c.177 0 .487.066.93.2 1.062.31 2.036.464 2.922.464.885 0 1.86-.155 2.922-.465.442-.133.752-.199.93-.199 1.372 0 2.667.31 3.884.93a9.234 9.234 0 013.088 2.523zM44.469 66.156c1.77 0 3.276.62 4.515 1.86 1.24 1.24 1.86 2.744 1.86 4.515 0 1.771-.62 3.276-1.86 4.516-1.24 1.24-2.744 1.86-4.515 1.86-1.771 0-3.276-.62-4.516-1.86-1.24-1.24-1.86-2.745-1.86-4.516 0-1.77.62-3.276 1.86-4.515 1.24-1.24 2.745-1.86 4.516-1.86zm0 9.563c.885 0 1.638-.31 2.258-.93.62-.62.93-1.372.93-2.258 0-.885-.31-1.638-.93-2.258a3.074 3.074 0 00-2.258-.93c-.886 0-1.638.31-2.258.93-.62.62-.93 1.373-.93 2.258 0 .886.31 1.638.93 2.258.62.62 1.372.93 2.258.93zm0-15.938c2.966 0 5.71.742 8.234 2.225a16.641 16.641 0 016.01 6.01c1.483 2.523 2.224 5.268 2.224 8.234s-.741 5.711-2.224 8.234a16.641 16.641 0 01-6.01 6.01c-2.523 1.483-5.268 2.225-8.234 2.225s-5.711-.742-8.235-2.225a16.641 16.641 0 01-6.01-6.01C28.743 81.961 28 79.216 28 76.25s.742-5.71 2.225-8.234a16.641 16.641 0 016.01-6.01c2.523-1.483 5.268-2.225 8.234-2.225zm0 29.75c1.638 0 3.187-.276 4.648-.83 1.461-.553 2.79-1.339 3.985-2.357a5.356 5.356 0 00-1.96-1.893 5.804 5.804 0 00-2.623-.763c-1.372.442-2.711.664-4.017.664-1.306 0-2.645-.222-4.018-.664a5.913 5.913 0 00-2.69.763 5.356 5.356 0 00-1.958 1.893A13.446 13.446 0 0039.82 88.7c1.461.554 3.01.83 4.649.83zm10.824-5.578c1.638-2.302 2.457-4.87 2.457-7.703 0-2.39-.598-4.604-1.793-6.64a13.393 13.393 0 00-4.848-4.848c-2.036-1.196-4.25-1.793-6.64-1.793-2.39 0-4.604.597-6.64 1.793a13.393 13.393 0 00-4.849 4.847c-1.195 2.037-1.793 4.25-1.793 6.641 0 2.833.82 5.401 2.458 7.703a9.234 9.234 0 013.087-2.523 8.445 8.445 0 013.885-.93c.177 0 .487.066.93.2 1.062.31 2.036.464 2.922.464.885 0 1.86-.155 2.922-.465.442-.133.752-.199.93-.199 1.372 0 2.667.31 3.884.93a9.234 9.234 0 013.088 2.523z" fill="#FFF" fill-rule="nonzero"/><path d="M34.5 49l5 13.5M64.5 58.5l-8 7M82.5 60.5l3 9M64.5 36.5l-13-3M60 6.5l-12.5 5" stroke="#FFF" stroke-width="3" stroke-linecap="square"/><circle fill="#FFF" cx="61.5" cy="5.5" r="5.5"/><circle fill="#FFF" cx="86.5" cy="73.5" r="5.5"/></g></svg>