<svg viewBox="0 0 27 18" xmlns="http://www.w3.org/2000/svg"><path d="M25.781 2.813c.219.843.375 2.125.469 3.843L26.297 9l-.047 2.344c-.094 1.75-.25 3.047-.469 3.89-.156.532-.437 1-.844 1.407a3.25 3.25 0 01-1.453.843c-.812.22-2.718.375-5.718.47L13.5 18l-4.266-.047c-3-.094-4.906-.25-5.718-.469a3.25 3.25 0 01-1.454-.843 3.269 3.269 0 01-.843-1.407C1 14.391.844 13.094.75 11.344L.703 9c0-.687.016-1.469.047-2.344.094-1.718.25-3 .469-3.843a3.25 3.25 0 01.843-1.454A3.25 3.25 0 013.516.516C4.328.296 6.234.14 9.234.046L13.5 0l4.266.047c3 .094 4.906.25 5.718.469a3.25 3.25 0 011.453.843c.407.407.688.891.844 1.454zm-14.906 10.03L17.578 9l-6.703-3.797v7.64z" fill="#FFF" fill-rule="nonzero"/></svg>