<svg viewBox="0 0 64 64" xmlns="http://www.w3.org/2000/svg" xmlns:xlink="http://www.w3.org/1999/xlink"><defs><circle id="a" cx="30" cy="30" r="30"/></defs><g transform="translate(2 2)" fill="none" fill-rule="evenodd"><mask id="b" fill="#fff"><use xlink:href="#a"/></mask><use stroke="#86858C" stroke-width="3" xlink:href="#a"/><path d="M31 36c-2.187 0-4.203-.531-6.047-1.594a11.674 11.674 0 01-4.36-4.36C19.532 28.204 19 26.188 19 24c0-2.187.531-4.203 1.594-6.047a11.674 11.674 0 014.36-4.36C26.796 12.532 28.812 12 31 12c2.187 0 4.203.531 6.047 1.594a11.674 11.674 0 014.36 4.36C42.468 19.796 43 21.812 43 24c0 2.187-.531 4.203-1.594 6.047a11.674 11.674 0 01-4.36 4.36C35.204 35.468 33.188 36 31 36zm8.286 3.094a11.34 11.34 0 015.903 1.828 12.533 12.533 0 014.255 4.547C50.481 47.344 51 49.375 51 51.562V55.5c0 1.25-.427 2.313-1.281 3.188-.854.874-1.892 1.312-3.112 1.312H14.393c-1.22 0-2.258-.438-3.112-1.313C10.427 57.813 10 56.75 10 55.5v-3.938c0-2.187.519-4.218 1.556-6.093a12.533 12.533 0 014.255-4.547 11.34 11.34 0 015.903-1.828L26.107 57l2.929-12.75L26.107 39h8.786l-2.929 5.25L34.893 57l4.393-17.906z" fill="#86858C" fill-rule="nonzero" style="mix-blend-mode:lighten" mask="url(#b)"/></g></svg>