<svg viewBox="0 0 144 137" xmlns="http://www.w3.org/2000/svg" xmlns:xlink="http://www.w3.org/1999/xlink"><defs><linearGradient x1="-5.856%" y1="85.532%" x2="84.057%" y2="10.586%" id="b"><stop stop-color="#FF2DD6" offset="0%"/><stop stop-color="#F12D2D" offset="50.94%"/><stop stop-color="#E1F701" offset="100%"/></linearGradient><path id="a" d="M.718.63h133.96V137H.719z"/></defs><g fill="none" fill-rule="evenodd"><path d="M77.791 71.035c-3.298 0-6.42.749-9.202 2.081A28.648 28.648 0 0165 87c6.874-3.226 12.282-8.964 15-16-.736.02-1.472.035-2.209.035z" fill="#EF4328"/><path d="M47 6C23.084 6.969 3.539 24.848 0 48a49.268 49.268 0 0112.59-4.534c3.517-8.926 8.857-17.112 15.841-24.093C33.951 13.863 40.217 9.373 47 6z" fill="#F22D3E"/><g transform="translate(9)"><mask id="c" fill="#fff"><use xlink:href="#a"/></mask><path d="M68.763 120.016c-16.229 0-29.428-11.874-29.428-28.135 0-14.469 10.453-26.535 24.198-29.023a40.336 40.336 0 01-4.18-17.946 40.467 40.467 0 013.967-17.527 40.618 40.618 0 00-1.568 11.22c0 10.928 4.322 20.854 11.347 28.15-.696.042-1.398.077-2.108.092v.007c-3.704.07-5.066.199-5.066.199-12.426 1.415-22.112 12.009-22.112 24.828 0 13.78 11.198 25 24.95 25 11.673 0 21.92-6.229 27.604-15.543-4.996 11.582-13.497 18.678-27.604 18.678M95.97 22.835a4.902 4.902 0 014.896 4.906 4.902 4.902 0 01-4.896 4.906 4.902 4.902 0 01-4.897-4.906 4.902 4.902 0 014.897-4.906m22.793 69.587c-8.573 0-16.03-4.8-19.841-11.853.163 1.28.248 2.588.248 3.918 0 16.822-13.61 30.467-30.407 30.467-12.716 0-23.027-10.331-23.027-23.073 0-12.741 10.31-23.065 23.027-23.065 25.014 0 47.069-12.684 60.112-31.988C117.429 15.29 94.806.63 68.763.63 31.182.63.718 31.154.718 68.816c0 37.655 30.464 68.186 68.045 68.186 31.72 0 58.373-21.75 65.916-51.179a22.435 22.435 0 01-15.916 6.599" fill="url(#b)" mask="url(#c)"/></g></g></svg>