<svg viewBox="0 0 605 60" xmlns="http://www.w3.org/2000/svg"><defs><linearGradient x1="55.611%" y1="2.616%" x2="25.625%" y2="91.675%" id="a"><stop stop-color="#EFB430" offset="0%"/><stop stop-color="#FAD155" offset="100%"/></linearGradient></defs><g fill="none" fill-rule="evenodd"><path d="M30 0h545v60H30C13.431 60 0 46.569 0 30 0 13.431 13.431 0 30 0z" fill="#FFF"/><circle fill="url(#a)" cx="575" cy="30" r="30"/><path d="M585.672 36.766c.219.218.328.484.328.797 0 .312-.11.578-.328.796l-1.313 1.313a1.085 1.085 0 01-.797.328c-.312 0-.578-.11-.796-.328l-4.688-4.688a1.085 1.085 0 01-.328-.797v-.75c-1.75 1.376-3.75 2.063-6 2.063-1.781 0-3.414-.437-4.898-1.313a9.85 9.85 0 01-3.54-3.539c-.875-1.484-1.312-3.117-1.312-4.898 0-1.781.437-3.414 1.313-4.898a9.85 9.85 0 013.539-3.54c1.484-.875 3.117-1.312 4.898-1.312 1.781 0 3.414.437 4.898 1.313a9.85 9.85 0 013.54 3.539c.875 1.484 1.312 3.117 1.312 4.898 0 2.25-.687 4.25-2.063 6h.75c.313 0 .579.11.797.328l4.688 4.688zM571.75 31.75a5.95 5.95 0 003.023-.797 5.837 5.837 0 002.18-2.18 5.95 5.95 0 00.797-3.023 5.95 5.95 0 00-.797-3.023 5.837 5.837 0 00-2.18-2.18 5.95 5.95 0 00-3.023-.797 5.95 5.95 0 00-3.023.797 5.837 5.837 0 00-2.18 2.18 5.95 5.95 0 00-.797 3.023 5.95 5.95 0 00.797 3.023 5.837 5.837 0 002.18 2.18 5.95 5.95 0 003.023.797z" fill="#FFF" fill-rule="nonzero"/><path d="M45.856 23.288h-5.76V21.2h13.896v2.088h-5.76V38h-2.376V23.288zM66.781 38l-5.04-6.936L56.773 38h-2.76l6.312-8.616-5.928-8.184h2.736l4.704 6.456 4.656-6.456h2.616l-5.928 8.112L69.541 38h-2.76zm19.822-16.8V38h-1.968l-10.08-12.528V38h-2.4V21.2h1.968l10.08 12.528V21.2h2.4zm26.61 0V38h-2.4v-7.488h-9.648V38h-2.4V21.2h2.4v7.224h9.648V21.2h2.4zm9.67 3.96c1.76 0 3.108.432 4.044 1.296.936.864 1.404 2.152 1.404 3.864V38h-2.184v-1.68c-.384.592-.932 1.044-1.644 1.356-.712.312-1.556.468-2.532.468-1.424 0-2.564-.344-3.42-1.032-.856-.688-1.284-1.592-1.284-2.712s.408-2.02 1.224-2.7c.816-.68 2.112-1.02 3.888-1.02h3.648v-.456c0-.992-.288-1.752-.864-2.28-.576-.528-1.424-.792-2.544-.792-.752 0-1.488.124-2.208.372-.72.248-1.328.58-1.824.996l-.96-1.728c.656-.528 1.44-.932 2.352-1.212.912-.28 1.88-.42 2.904-.42zm-.528 11.208c.88 0 1.64-.196 2.28-.588a3.365 3.365 0 001.392-1.668v-1.776h-3.552c-1.952 0-2.928.656-2.928 1.968 0 .64.248 1.144.744 1.512.496.368 1.184.552 2.064.552zm14.229 1.776c-1.04 0-2.04-.14-3-.42-.96-.28-1.712-.636-2.256-1.068l.96-1.824c.56.4 1.24.72 2.04.96s1.608.36 2.424.36c2.016 0 3.024-.576 3.024-1.728 0-.384-.136-.688-.408-.912a2.583 2.583 0 00-1.02-.492 23.4 23.4 0 00-1.74-.348c-1.024-.16-1.86-.344-2.508-.552a3.865 3.865 0 01-1.668-1.056c-.464-.496-.696-1.192-.696-2.088 0-1.152.48-2.076 1.44-2.772.96-.696 2.248-1.044 3.864-1.044.848 0 1.696.104 2.544.312.848.208 1.544.488 2.088.84l-.984 1.824c-1.04-.672-2.264-1.008-3.672-1.008-.976 0-1.72.16-2.232.48-.512.32-.768.744-.768 1.272 0 .416.144.744.432.984.288.24.644.416 1.068.528.424.112 1.02.24 1.788.384 1.024.176 1.852.364 2.484.564.632.2 1.172.54 1.62 1.02.448.48.672 1.152.672 2.016 0 1.152-.492 2.068-1.476 2.748-.984.68-2.324 1.02-4.02 1.02zm15.501-12.984c1.616 0 2.9.468 3.852 1.404.952.936 1.428 2.308 1.428 4.116V38h-2.304v-7.056c0-1.232-.296-2.16-.888-2.784-.592-.624-1.44-.936-2.544-.936-1.248 0-2.232.364-2.952 1.092-.72.728-1.08 1.772-1.08 3.132V38h-2.304V20.192h2.304v6.888c.48-.608 1.108-1.08 1.884-1.416.776-.336 1.644-.504 2.604-.504z" fill="#5B5662" fill-rule="nonzero" opacity=".596"/></g></svg>