<svg width="574" height="20" xmlns="http://www.w3.org/2000/svg"><g fill="none" fill-rule="evenodd"><path fill="#FFF" d="M9 20h5V8H9zM0 20h5v-8H0zM18 20h5V5h-5zM27 20h5V0h-5z"/><path d="M569 18h-31.025c-.54 0-.975-.467-.975-.989V4.95a.96.96 0 01.975-.949h31.05a.96.96 0 01.975.95V17.01c0 .522-.435.989-.975.989" stroke="#FFF" stroke-width="2"/><path fill="#FFF" d="M538 4h24v14h-24z"/><text font-family="SFProText-Semibold, SF Pro Text" font-size="16" font-weight="500" fill="#FFF"><tspan x="474" y="16">100%</tspan></text><text font-family="SFProText-Semibold, SF Pro Text" font-size="16" font-weight="500" fill="#FFF"><tspan x="51" y="16">8:45</tspan></text><path d="M571.9 15h-.805c-.61 0-1.105-.568-1.105-1.26V8.255c0-.693.495-1.255 1.105-1.255h.805c.61 0 1.11.562 1.11 1.255v5.485c0 .692-.5 1.26-1.11 1.26" fill="#FFF"/></g></svg>