<svg viewBox="0 0 76 76" xmlns="http://www.w3.org/2000/svg"><path d="M54 37.773v1.454c0 .403-.141.746-.424 1.029a1.401 1.401 0 01-1.03.424H40.68v11.867c0 .404-.142.747-.424 1.03a1.401 1.401 0 01-1.03.423h-1.453c-.403 0-.746-.141-1.029-.424a1.401 1.401 0 01-.424-1.03V40.68H24.453c-.404 0-.747-.142-1.03-.424a1.401 1.401 0 01-.423-1.03v-1.453c0-.403.141-.746.424-1.029a1.401 1.401 0 011.03-.424H36.32V24.453c0-.404.142-.747.424-1.03a1.401 1.401 0 011.03-.423h1.453c.403 0 .746.141 1.029.424.282.282.424.625.424 1.03V36.32h11.867c.404 0 .747.142 1.03.424.282.283.423.626.423 1.03zM76 38c0 6.844-1.711 13.177-5.133 19C67.445 62.823 62.823 67.445 57 70.867 51.177 74.289 44.844 76 38 76c-6.844 0-13.177-1.711-19-5.133C13.177 67.445 8.555 62.823 5.133 57 1.711 51.177 0 44.844 0 38c0-6.844 1.711-13.177 5.133-19C8.555 13.177 13.177 8.555 19 5.133 24.823 1.711 31.156 0 38 0c6.844 0 13.177 1.711 19 5.133C62.823 8.555 67.445 13.177 70.867 19 74.289 24.823 76 31.156 76 38zm-4 0c0-6.191-1.522-11.884-4.565-17.079C64.392 15.727 60.247 11.608 55 8.565 49.753 5.522 44.06 4 37.921 4c-6.139 0-11.805 1.522-17 4.565C15.727 11.608 11.608 15.753 8.565 21 5.522 26.247 4 31.94 4 38.079c0 6.139 1.522 11.805 4.565 17 3.043 5.194 7.188 9.313 12.435 12.356C26.247 70.478 31.94 72 38.079 72c6.139 0 11.805-1.522 17-4.565 5.194-3.043 9.313-7.188 12.356-12.435C70.478 49.753 72 44.086 72 38z" fill="#ffffff" fill-rule="nonzero"/></svg>