<svg viewBox="0 0 686 958" xmlns="http://www.w3.org/2000/svg" xmlns:xlink="http://www.w3.org/1999/xlink"><defs><linearGradient x1="40.969%" y1="7.971%" x2="63.36%" y2="109.64%" id="d"><stop stop-color="#4D128B" offset="0%"/><stop stop-color="#9C53B7" offset="100%"/></linearGradient><linearGradient x1="-13.346%" y1="75.789%" x2="108.784%" y2="15.594%" id="e"><stop stop-color="#FFEB4F" offset="0%"/><stop stop-color="#00E300" offset="100%"/></linearGradient><path id="a" d="M0 0h686v958H0z"/><path d="M181.44 79.945l-19.57-19.453c-.547-.547-.82-1.25-.82-2.11 0-.859.273-1.562.82-2.109l4.336-4.218c.547-.625 1.23-.938 2.051-.938.82 0 1.543.313 2.168.938L183.55 65.18l28.125-28.125c.625-.625 1.348-.938 2.168-.938.82 0 1.504.313 2.05.938l4.337 4.218c.547.547.82 1.25.82 2.11 0 .86-.273 1.562-.82 2.11l-34.57 34.452c-.548.625-1.25.938-2.11.938-.86 0-1.562-.313-2.11-.938z" id="g"/><filter x="-50.8%" y="-65.9%" width="201.7%" height="236.3%" filterUnits="objectBoundingBox" id="f"><feOffset dy="1" in="SourceAlpha" result="shadowOffsetOuter1"/><feGaussianBlur stdDeviation="10" in="shadowOffsetOuter1" result="shadowBlurOuter1"/><feColorMatrix values="0 0 0 0 0 0 0 0 0 0 0 0 0 0 0 0 0 0 0.193373033 0" in="shadowBlurOuter1"/></filter><rect id="c" x="0" y="0" width="687" height="1498" rx="50"/></defs><g fill="none" fill-rule="evenodd"><g mask="url(#b)"><path d="M172.984 312.672c-9.632 0-16.8-7.336-16.8-20.272 0-12.936 7.168-20.272 16.8-20.272 9.688 0 16.8 7.336 16.8 20.272 0 12.936-7.112 20.272-16.8 20.272zm0-7.672c4.536 0 7.672-3.696 7.672-12.6s-3.136-12.6-7.672-12.6c-4.48 0-7.616 3.696-7.616 12.6s3.136 12.6 7.616 12.6zm26.648 7.448c-3.024 0-5.432-2.296-5.432-5.488 0-3.248 2.408-5.376 5.432-5.376 3.024 0 5.432 2.128 5.432 5.376 0 3.192-2.408 5.488-5.432 5.488zm29.392-23.688c7.056 1.12 10.64 5.488 10.64 11.256 0 6.608-5.096 12.656-16.24 12.656-5.488 0-11.144-1.512-14.952-4.2l3.528-6.944c2.968 2.24 7.112 3.528 11.2 3.528 4.536 0 7.336-1.848 7.336-5.04 0-2.968-2.184-4.816-7.336-4.816h-4.144v-5.992l8.064-9.128h-16.688v-7.28h27.44v5.88l-8.848 10.08zm51.736 7.616v7.392h-6.384V312h-8.848v-8.232h-21.112v-6.104l18.48-24.864h9.52l-17.136 23.576h10.528v-7.336h8.568v7.336h6.384zm31.072-4.984c3.808 1.904 5.992 5.04 5.992 9.24 0 7.392-6.608 12.04-16.576 12.04-9.912 0-16.464-4.648-16.464-12.04 0-4.2 2.184-7.336 5.936-9.24-2.912-1.792-4.536-4.536-4.536-8.064 0-6.888 6.16-11.2 15.064-11.2 9.016 0 15.176 4.312 15.176 11.2 0 3.528-1.68 6.272-4.592 8.064zm-10.584-12.6c-3.64 0-6.048 1.848-6.048 4.928 0 2.968 2.352 4.816 6.048 4.816 3.752 0 6.16-1.848 6.16-4.816 0-3.08-2.464-4.928-6.16-4.928zm0 27.216c4.536 0 7.392-2.184 7.392-5.656 0-3.472-2.856-5.6-7.392-5.6-4.48 0-7.28 2.128-7.28 5.6 0 3.472 2.8 5.656 7.28 5.656zm57.616-9.632v7.392h-6.384V312h-8.848v-8.232H322.52v-6.104L341 272.8h9.52l-17.136 23.576h10.528v-7.336h8.568v7.336h6.384zm20.488 16.296c-9.632 0-16.8-7.336-16.8-20.272 0-12.936 7.168-20.272 16.8-20.272 9.688 0 16.8 7.336 16.8 20.272 0 12.936-7.112 20.272-16.8 20.272zm0-7.672c4.536 0 7.672-3.696 7.672-12.6s-3.136-12.6-7.672-12.6c-4.48 0-7.616 3.696-7.616 12.6s3.136 12.6 7.616 12.6zm70.992 3.416V312h-27.72v-39.2h26.88v3.584h-22.736v13.944h20.272v3.528h-20.272v14.56h23.576zm38.464 0V312h-27.72v-39.2h26.88v3.584h-22.736v13.944h20.272v3.528h-20.272v14.56h23.576zM524.136 312l-12.656-17.248L498.88 312h-4.76l14.896-20.16-13.944-19.04h4.76l11.816 16.016 11.76-16.016h4.48L514 291.728 528.952 312h-4.816z" fill="#FFF" fill-rule="nonzero"/><path d="M252.428 235.288V244h-3.564v-8.784L238.856 218.8h3.852l8.064 13.284 8.1-13.284h3.564l-10.008 16.488zm19.552 8.928c-1.896 0-3.6-.42-5.112-1.26a9.137 9.137 0 01-3.546-3.474c-.852-1.476-1.278-3.15-1.278-5.022 0-1.872.426-3.546 1.278-5.022a9.011 9.011 0 013.546-3.456c1.512-.828 3.216-1.242 5.112-1.242s3.594.414 5.094 1.242a9.044 9.044 0 013.528 3.456c.852 1.476 1.278 3.15 1.278 5.022 0 1.872-.426 3.546-1.278 5.022a9.172 9.172 0 01-3.528 3.474c-1.5.84-3.198 1.26-5.094 1.26zm0-3.024c1.224 0 2.322-.282 3.294-.846a5.971 5.971 0 002.286-2.376c.552-1.02.828-2.19.828-3.51 0-1.32-.276-2.49-.828-3.51-.552-1.02-1.314-1.806-2.286-2.358s-2.07-.828-3.294-.828c-1.224 0-2.322.276-3.294.828-.972.552-1.74 1.338-2.304 2.358-.564 1.02-.846 2.19-.846 3.51 0 1.32.282 2.49.846 3.51a6.096 6.096 0 002.304 2.376c.972.564 2.07.846 3.294.846zm32.872-16.272V244h-3.276v-2.88c-.696.984-1.614 1.746-2.754 2.286s-2.382.81-3.726.81c-2.544 0-4.548-.702-6.012-2.106-1.464-1.404-2.196-3.474-2.196-6.21v-10.98h3.456v10.584c0 1.848.444 3.246 1.332 4.194.888.948 2.16 1.422 3.816 1.422 1.824 0 3.264-.552 4.32-1.656 1.056-1.104 1.584-2.664 1.584-4.68v-9.864h3.456zm7.852-7.848c.672 0 1.23.234 1.674.702.444.468.666 1.05.666 1.746 0 .36-.036.714-.108 1.062-.072.348-.228.846-.468 1.494l-1.728 5.04h-2.268l1.332-5.364a2.26 2.26 0 01-1.098-.846c-.276-.396-.414-.858-.414-1.386 0-.72.228-1.308.684-1.764.456-.456 1.032-.684 1.728-.684zm25.204 7.848L329.556 244h-3.528l-8.352-19.08h3.6l6.552 15.3 6.696-15.3h3.384zm20.344 9.648c0 .264-.024.612-.072 1.044H342.7c.216 1.68.954 3.03 2.214 4.05s2.826 1.53 4.698 1.53c2.28 0 4.116-.768 5.508-2.304l1.908 2.232c-.864 1.008-1.938 1.776-3.222 2.304-1.284.528-2.718.792-4.302.792-2.016 0-3.804-.414-5.364-1.242-1.56-.828-2.766-1.986-3.618-3.474-.852-1.488-1.278-3.168-1.278-5.04 0-1.848.414-3.516 1.242-5.004a8.897 8.897 0 013.42-3.474c1.452-.828 3.09-1.242 4.914-1.242 1.824 0 3.45.414 4.878 1.242 1.428.828 2.544 1.986 3.348 3.474.804 1.488 1.206 3.192 1.206 5.112zm-9.432-6.912c-1.656 0-3.042.504-4.158 1.512-1.116 1.008-1.77 2.328-1.962 3.96h12.24c-.192-1.608-.846-2.922-1.962-3.942s-2.502-1.53-4.158-1.53zm30.176 16.56c-1.56 0-3.06-.21-4.5-.63-1.44-.42-2.568-.954-3.384-1.602l1.44-2.736c.84.6 1.86 1.08 3.06 1.44 1.2.36 2.412.54 3.636.54 3.024 0 4.536-.864 4.536-2.592 0-.576-.204-1.032-.612-1.368-.408-.336-.918-.582-1.53-.738-.612-.156-1.482-.33-2.61-.522-1.536-.24-2.79-.516-3.762-.828a5.798 5.798 0 01-2.502-1.584c-.696-.744-1.044-1.788-1.044-3.132 0-1.728.72-3.114 2.16-4.158 1.44-1.044 3.372-1.566 5.796-1.566 1.272 0 2.544.156 3.816.468 1.272.312 2.316.732 3.132 1.26l-1.476 2.736c-1.56-1.008-3.396-1.512-5.508-1.512-1.464 0-2.58.24-3.348.72-.768.48-1.152 1.116-1.152 1.908 0 .624.216 1.116.648 1.476.432.36.966.624 1.602.792.636.168 1.53.36 2.682.576 1.536.264 2.778.546 3.726.846.948.3 1.758.81 2.43 1.53.672.72 1.008 1.728 1.008 3.024 0 1.728-.738 3.102-2.214 4.122s-3.486 1.53-6.03 1.53zm30.208-9.648c0 .264-.024.612-.072 1.044h-15.48c.216 1.68.954 3.03 2.214 4.05s2.826 1.53 4.698 1.53c2.28 0 4.116-.768 5.508-2.304l1.908 2.232c-.864 1.008-1.938 1.776-3.222 2.304-1.284.528-2.718.792-4.302.792-2.016 0-3.804-.414-5.364-1.242-1.56-.828-2.766-1.986-3.618-3.474-.852-1.488-1.278-3.168-1.278-5.04 0-1.848.414-3.516 1.242-5.004a8.897 8.897 0 013.42-3.474c1.452-.828 3.09-1.242 4.914-1.242 1.824 0 3.45.414 4.878 1.242 1.428.828 2.544 1.986 3.348 3.474.804 1.488 1.206 3.192 1.206 5.112zm-9.432-6.912c-1.656 0-3.042.504-4.158 1.512-1.116 1.008-1.77 2.328-1.962 3.96h12.24c-.192-1.608-.846-2.922-1.962-3.942s-2.502-1.53-4.158-1.53zm24.808-2.916c2.424 0 4.35.702 5.778 2.106s2.142 3.462 2.142 6.174V244h-3.456v-10.584c0-1.848-.444-3.24-1.332-4.176-.888-.936-2.16-1.404-3.816-1.404-1.872 0-3.348.546-4.428 1.638-1.08 1.092-1.62 2.658-1.62 4.698V244h-3.456v-19.08h3.312v2.88c.696-.984 1.638-1.74 2.826-2.268 1.188-.528 2.538-.792 4.05-.792zm25.456 18.144c-.504.432-1.128.762-1.872.99a7.82 7.82 0 01-2.304.342c-1.92 0-3.408-.516-4.464-1.548-1.056-1.032-1.584-2.508-1.584-4.428v-10.476h-3.24v-2.844h3.24v-4.176h3.456v4.176h5.472v2.844h-5.472v10.332c0 1.032.258 1.824.774 2.376.516.552 1.254.828 2.214.828 1.056 0 1.956-.3 2.7-.9l1.08 2.484z" fill="#FFF" fill-rule="nonzero" opacity=".501"/><g transform="translate(155 458)"><rect fill="#FFF" opacity=".247" y="306" width="380" height="80" rx="40"/><path d="M80.787 347.536c2.028.65 3.328 2.21 3.328 4.498 0 3.146-2.496 4.966-7.28 4.966h-9.412v-18.2h8.892c4.55 0 6.89 1.898 6.89 4.732 0 1.82-.936 3.224-2.418 4.004zm-4.992-5.564h-4.186v4.29h4.186c2.054 0 3.172-.728 3.172-2.158s-1.118-2.132-3.172-2.132zm.728 11.856c2.184 0 3.354-.676 3.354-2.236 0-1.534-1.17-2.262-3.354-2.262h-4.914v4.498h4.914zM101.301 357l-1.612-3.9h-8.45l-1.612 3.9h-4.316l8.112-18.2h4.16l8.138 18.2h-4.42zm-8.71-7.098h5.772l-2.886-6.968-2.886 6.968zm23.868 7.41c-5.642 0-9.854-3.926-9.854-9.412 0-5.486 4.212-9.412 9.88-9.412 3.146 0 5.772 1.144 7.488 3.224l-2.704 2.496c-1.222-1.404-2.756-2.132-4.576-2.132-3.406 0-5.824 2.392-5.824 5.824s2.418 5.824 5.824 5.824c1.82 0 3.354-.728 4.576-2.158l2.704 2.496c-1.716 2.106-4.342 3.25-7.514 3.25zm23.192-.312l-5.824-7.15-2.444 2.548V357h-4.186v-18.2h4.186v8.502l8.06-8.502h4.68l-7.54 8.112L144.565 357h-4.914zm18.694 0v-14.768h-5.824V338.8h15.86v3.432h-5.824V357h-4.212zm21.242.312c-5.746 0-9.958-4.004-9.958-9.412 0-5.408 4.212-9.412 9.958-9.412 5.72 0 9.958 3.978 9.958 9.412 0 5.434-4.238 9.412-9.958 9.412zm0-3.588c3.25 0 5.694-2.366 5.694-5.824 0-3.458-2.444-5.824-5.694-5.824s-5.694 2.366-5.694 5.824c0 3.458 2.444 5.824 5.694 5.824zm44.746-14.924h4.03l-5.954 18.2h-4.524l-4.004-12.324L209.747 357h-4.498l-5.98-18.2h4.368l4.108 12.792 4.29-12.792h3.9l4.16 12.896 4.238-12.896zm19.76 18.2l-1.612-3.9h-8.45l-1.612 3.9h-4.316l8.112-18.2h4.16l8.138 18.2h-4.42zm-8.71-7.098h5.772l-2.886-6.968-2.886 6.968zM250.801 357v-18.2h4.212v14.768h9.126V357h-13.338zm16.094 0v-18.2h4.212v14.768h9.126V357h-13.338zm20.28-3.38h9.906V357h-14.092v-18.2h13.754v3.38h-9.568v3.952h8.45v3.276h-8.45v4.212zm17.42 3.38v-14.768h-5.824V338.8h15.86v3.432h-5.824V357h-4.212z" fill="#FFF" fill-rule="nonzero"/><circle fill="url(#e)" cx="190" cy="60" r="60"/><path d="M145.82 170v-21h9.54c6.87 0 11.58 4.14 11.58 10.5s-4.71 10.5-11.58 10.5h-9.54zm4.86-3.99h4.44c4.17 0 6.9-2.49 6.9-6.51s-2.73-6.51-6.9-6.51h-4.44v13.02zm27.62 4.23c-5.13 0-8.88-3.45-8.88-8.31s3.75-8.31 8.88-8.31c5.13 0 8.85 3.45 8.85 8.31s-3.72 8.31-8.85 8.31zm0-3.84c2.34 0 4.11-1.68 4.11-4.47s-1.77-4.47-4.11-4.47c-2.34 0-4.14 1.68-4.14 4.47s1.8 4.47 4.14 4.47zm22.13-12.78c3.81 0 6.69 2.22 6.69 7.14V170h-4.68v-8.52c0-2.61-1.2-3.81-3.27-3.81-2.25 0-3.87 1.38-3.87 4.35V170h-4.68v-16.14h4.47v1.89c1.26-1.38 3.15-2.13 5.34-2.13zm27.26 8.37c0 .36-.06.87-.09 1.26h-12.21c.45 2.01 2.16 3.24 4.62 3.24 1.71 0 2.94-.51 4.05-1.56l2.49 2.7c-1.5 1.71-3.75 2.61-6.66 2.61-5.58 0-9.21-3.51-9.21-8.31 0-4.83 3.69-8.31 8.61-8.31 4.74 0 8.4 3.18 8.4 8.37zm-8.37-4.83c-2.13 0-3.66 1.29-3.99 3.36h7.95c-.33-2.04-1.86-3.36-3.96-3.36zm12.17 5.55l-.93-13.71h5.58l-.93 13.71h-3.72zm1.86 7.53c-1.68 0-2.88-1.23-2.88-2.73 0-1.53 1.2-2.67 2.88-2.67s2.88 1.14 2.88 2.67c0 1.5-1.2 2.73-2.88 2.73z" fill="#FFF" fill-rule="nonzero"/><g fill-rule="nonzero"><use fill="#000" filter="url(#f)" xlink:href="#g"/><use fill="#FFF" xlink:href="#g"/></g><path d="M136.262 423.176c-1.555 0-2.955-.341-4.202-1.023a7.561 7.561 0 01-2.937-2.827c-.711-1.203-1.067-2.545-1.067-4.026 0-1.481.356-2.823 1.067-4.026a7.561 7.561 0 012.937-2.827c1.247-.682 2.647-1.023 4.202-1.023 1.54 0 2.933.341 4.18 1.023a7.507 7.507 0 012.926 2.816c.704 1.195 1.056 2.541 1.056 4.037s-.352 2.842-1.056 4.037a7.507 7.507 0 01-2.926 2.816c-1.247.682-2.64 1.023-4.18 1.023zm0-1.958c1.13 0 2.145-.257 3.047-.77a5.65 5.65 0 002.134-2.123c.52-.902.781-1.91.781-3.025s-.26-2.123-.781-3.025a5.65 5.65 0 00-2.134-2.123c-.902-.513-1.918-.77-3.047-.77-1.13 0-2.152.257-3.069.77a5.605 5.605 0 00-2.156 2.123c-.52.902-.781 1.91-.781 3.025s.26 2.123.781 3.025c.52.902 1.24 1.61 2.156 2.123.917.513 1.94.77 3.069.77zm16.119-3.652l-2.42 2.244V423h-2.112v-16.324h2.112v10.472l6.358-5.808h2.552l-4.906 4.818 5.39 6.842h-2.596l-4.378-5.434zm10.134 2.552c.411 0 .752.143 1.023.429.272.286.407.642.407 1.067 0 .22-.025.433-.077.638-.051.205-.15.52-.297.946l-1.034 3.058h-1.386l.814-3.278a1.38 1.38 0 01-.67-.517 1.444 1.444 0 01-.254-.847c0-.44.14-.8.418-1.078.279-.279.631-.418 1.056-.418zm11.426-12.518h2.2V423h-2.2v-15.4zm24.317 3.74v10.076c0 2.039-.506 3.546-1.518 4.521-1.012.975-2.523 1.463-4.532 1.463-1.1 0-2.149-.15-3.146-.451-.997-.3-1.804-.73-2.42-1.287l1.012-1.628c.543.47 1.214.84 2.013 1.111.8.271 1.624.407 2.475.407 1.364 0 2.372-.323 3.025-.968s.979-1.628.979-2.948v-.924a4.674 4.674 0 01-1.837 1.353 6.12 6.12 0 01-2.365.451c-1.115 0-2.123-.238-3.025-.715a5.319 5.319 0 01-2.123-2.002c-.513-.858-.77-1.837-.77-2.937 0-1.1.257-2.079.77-2.937a5.243 5.243 0 012.123-1.991c.902-.47 1.91-.704 3.025-.704.88 0 1.698.161 2.453.484.755.323 1.375.8 1.859 1.43v-1.804h2.002zm-6.072 9.328c.763 0 1.448-.161 2.057-.484a3.58 3.58 0 001.43-1.353c.345-.58.517-1.236.517-1.969 0-1.13-.374-2.042-1.122-2.739-.748-.697-1.709-1.045-2.882-1.045-1.188 0-2.156.348-2.904 1.045-.748.697-1.122 1.61-1.122 2.739 0 .733.172 1.39.517 1.969a3.58 3.58 0 001.43 1.353c.609.323 1.302.484 2.079.484zm15.459 2.464c-1.159 0-2.2-.257-3.124-.77a5.584 5.584 0 01-2.167-2.123c-.521-.902-.781-1.925-.781-3.069s.26-2.167.78-3.069a5.507 5.507 0 012.168-2.112c.924-.506 1.965-.759 3.124-.759 1.158 0 2.196.253 3.113.759a5.527 5.527 0 012.156 2.112c.52.902.78 1.925.78 3.069s-.26 2.167-.78 3.069a5.605 5.605 0 01-2.156 2.123c-.917.513-1.955.77-3.113.77zm0-1.848c.748 0 1.419-.172 2.013-.517a3.65 3.65 0 001.397-1.452c.337-.623.506-1.338.506-2.145 0-.807-.169-1.522-.506-2.145a3.574 3.574 0 00-1.397-1.441c-.594-.337-1.265-.506-2.013-.506s-1.42.169-2.013.506a3.648 3.648 0 00-1.408 1.441c-.345.623-.517 1.338-.517 2.145 0 .807.172 1.522.517 2.145a3.725 3.725 0 001.408 1.452c.594.345 1.265.517 2.013.517zm15.898 1.034c-.308.264-.689.466-1.144.605-.454.14-.924.209-1.408.209-1.173 0-2.082-.315-2.728-.946-.645-.63-.968-1.533-.968-2.706v-6.402h-1.98v-1.738h1.98v-2.552h2.112v2.552h3.344v1.738h-3.344v6.314c0 .63.158 1.115.473 1.452.316.337.767.506 1.353.506.646 0 1.196-.183 1.65-.55l.66 1.518zm9.204-10.978h2.112V423h-2.112v-11.66zm1.056-2.244c-.411 0-.752-.132-1.023-.396a1.299 1.299 0 01-.407-.968c0-.381.135-.708.407-.979.271-.271.612-.407 1.023-.407.41 0 .751.128 1.023.385.271.257.407.576.407.957 0 .396-.136.73-.407 1.001-.272.271-.613.407-1.023.407zm12.004 13.222c-.308.264-.689.466-1.144.605-.454.14-.924.209-1.408.209-1.173 0-2.082-.315-2.728-.946-.645-.63-.968-1.533-.968-2.706v-6.402h-1.98v-1.738h1.98v-2.552h2.112v2.552h3.344v1.738h-3.344v6.314c0 .63.158 1.115.473 1.452.316.337.767.506 1.353.506.646 0 1.196-.183 1.65-.55l.66 1.518z" fill="#FFF" fill-rule="nonzero" opacity=".61"/></g></g></g></svg>