<svg viewBox="0 0 694 969" xmlns="http://www.w3.org/2000/svg" xmlns:xlink="http://www.w3.org/1999/xlink"><defs><path id="a" d="M0 0h694v969H0z"/><path id="c" d="M0 0h695v1515H0z"/><radialGradient cx="50%" cy="50%" fx="50%" fy="50%" r="112.787%" gradientTransform="scale(.99973 1) rotate(79.358 .5 .5)" id="e"><stop stop-color="#FFF" offset="0%"/><stop stop-color="#662699" stop-opacity="0" offset="100%"/></radialGradient><linearGradient x1="40.269%" y1="10.323%" x2="64.091%" y2="90.56%" id="d"><stop stop-color="#4D128B" offset="0%"/><stop stop-color="#9C53B7" offset="100%"/></linearGradient></defs><g fill="none" fill-rule="evenodd"><mask id="b" fill="#fff"><use xlink:href="#a"/></mask><use fill-opacity="0" fill="#D8D8D8" fill-rule="nonzero" xlink:href="#a"/><g mask="url(#b)"><g transform="translate(2 -3)"><use fill="url(#d)" xlink:href="#c"/><use fill="#1F0E35" xlink:href="#c"/><path d="M347.994 711.992c117.33-.007 212.449-95.1 212.455-212.398.006-117.297-95.102-212.38-212.432-212.373-117.329.006-212.448 95.1-212.454 212.397-.007 117.297 95.102 212.38 212.431 212.374z" stroke="url(#e)" stroke-width="424" opacity=".096" style="mix-blend-mode:hard-light" stroke-dasharray="80,85" transform="rotate(11 348.006 499.606)"/><ellipse fill="#924BC8" opacity=".148" cx="593.836" cy="646.252" rx="17.198" ry="17.193"/><ellipse fill="#924BC8" opacity=".4" cx="509.869" cy="579.503" rx="5.058" ry="5.057"/><ellipse fill="#924BC8" opacity=".197" cx="564.498" cy="533.992" rx="8.093" ry="8.091"/><ellipse fill-opacity=".3" fill="#7A41A6" cx="122.409" cy="500.617" rx="15.175" ry="15.17"/><ellipse fill-opacity=".7" fill="#7A41A6" cx="147.7" cy="420.721" rx="5.058" ry="5.057"/></g></g></g></svg>