<svg viewBox="0 0 683 958" xmlns="http://www.w3.org/2000/svg" xmlns:xlink="http://www.w3.org/1999/xlink"><defs><linearGradient x1="40.969%" y1="7.971%" x2="63.36%" y2="109.64%" id="c"><stop stop-color="#4D128B" offset="0%"/><stop stop-color="#9C53B7" offset="100%"/></linearGradient><linearGradient x1="0%" y1="53.497%" x2="100%" y2="46.503%" id="d"><stop stop-color="#FFFAB5" offset="0%"/><stop stop-color="#FFF" offset="100%"/></linearGradient><linearGradient x1="-29.212%" y1="58.82%" x2="93.981%" y2="44.675%" id="e"><stop stop-color="#FFEB4F" offset="0%"/><stop stop-color="#00E300" offset="100%"/></linearGradient><linearGradient x1="0%" y1="50.007%" x2="100%" y2="49.993%" id="h"><stop stop-color="#FFFAB5" offset="0%"/><stop stop-color="#FFF" offset="100%"/></linearGradient><linearGradient x1="0%" y1="50.001%" x2="100%" y2="49.999%" id="i"><stop stop-color="#FFFAB5" offset="0%"/><stop stop-color="#FFF" offset="100%"/></linearGradient><linearGradient x1="-19.905%" y1="50%" x2="100%" y2="50%" id="j"><stop stop-color="#7F6FDB" offset="0%"/><stop stop-color="#00F1F9" offset="100%"/></linearGradient><linearGradient x1="4.401%" y1="52.749%" x2="120.217%" y2="47.114%" id="k"><stop stop-color="#00F1F9" offset="0%"/><stop stop-color="#7F6FDB" offset="100%"/></linearGradient><path id="a" d="M0 0h686v958H0z"/><path d="M504.684 106.602v2.196h-3.132v3.06h-2.322v-3.06h-3.114v-2.196h3.114v-3.06h2.322v3.06h3.132zm8.326 7.614c-3.096 0-5.4-2.358-5.4-6.516 0-4.158 2.304-6.516 5.4-6.516 3.114 0 5.4 2.358 5.4 6.516 0 4.158-2.286 6.516-5.4 6.516zm0-2.466c1.458 0 2.466-1.188 2.466-4.05s-1.008-4.05-2.466-4.05c-1.44 0-2.448 1.188-2.448 4.05s1.008 4.05 2.448 4.05zm10.793-3.546c-1.836 0-3.132-1.35-3.132-3.474s1.296-3.474 3.132-3.474 3.114 1.332 3.114 3.474c0 2.142-1.278 3.474-3.114 3.474zM522.705 114l8.604-12.6h2.142l-8.604 12.6h-2.142zm1.098-7.272c.792 0 1.314-.648 1.314-1.998s-.522-1.998-1.314-1.998c-.774 0-1.314.666-1.314 1.998 0 1.332.54 1.998 1.314 1.998zm8.55 7.416c-1.818 0-3.114-1.35-3.114-3.474s1.296-3.474 3.114-3.474c1.836 0 3.132 1.35 3.132 3.474s-1.296 3.474-3.132 3.474zm0-1.476c.792 0 1.314-.666 1.314-1.998 0-1.332-.522-1.998-1.314-1.998-.774 0-1.314.648-1.314 1.998s.54 1.998 1.314 1.998z" id="g"/><filter x="-80%" y="-241.7%" width="260%" height="583.4%" filterUnits="objectBoundingBox" id="f"><feOffset in="SourceAlpha" result="shadowOffsetOuter1"/><feGaussianBlur stdDeviation="10.5" in="shadowOffsetOuter1" result="shadowBlurOuter1"/><feColorMatrix values="0 0 0 0 0 0 0 0 0 0 0 0 0 0 0 0 0 0 0.443072552 0" in="shadowBlurOuter1"/></filter></defs><g fill="none" fill-rule="evenodd"><mask id="b" fill="#fff"><use xlink:href="#a"/></mask><use fill-opacity="0" fill="#D8D8D8" fill-rule="nonzero" xlink:href="#a"/><g mask="url(#b)"><path fill="url(#c)" d="M6 0h687v1498H6z" transform="translate(-10 -2)"/><g transform="translate(36 419)"><rect fill="url(#d)" opacity=".354" style="mix-blend-mode:overlay" width="605" height="160" rx="10"/></g><g transform="translate(36 229)"><rect fill="url(#d)" opacity=".354" style="mix-blend-mode:overlay" width="605" height="160" rx="10"/><rect fill="url(#e)" x="465" y="86" width="100" height="42" rx="21"/><g fill-rule="nonzero"><use fill="#000" filter="url(#f)" xlink:href="#g"/><use fill="#FFF" xlink:href="#g"/></g><path d="M32.624 111.17c-.513 0-.968-.106-1.364-.319a8.486 8.486 0 01-1.32-.913 7.8 7.8 0 00-.913-.682 1.48 1.48 0 00-.781-.22c-.47 0-.843.18-1.122.539-.279.36-.433.84-.462 1.441h-1.386c.03-1.188.304-2.086.825-2.695.52-.609 1.214-.913 2.079-.913.528 0 .986.106 1.375.319.389.213.825.524 1.309.935.381.308.69.532.924.671.235.14.491.209.77.209.484 0 .862-.18 1.133-.539.271-.36.422-.847.451-1.463h1.386c-.03 1.203-.304 2.108-.825 2.717-.52.609-1.214.913-2.079.913zm18.18 6.006c-1.218 0-2.3-.312-3.246-.935-.946-.623-1.69-1.529-2.233-2.717-.542-1.188-.814-2.596-.814-4.224 0-1.628.272-3.036.814-4.224.543-1.188 1.287-2.094 2.233-2.717.946-.623 2.028-.935 3.245-.935 1.203 0 2.277.312 3.223.935.946.623 1.69 1.529 2.233 2.717.543 1.188.814 2.596.814 4.224 0 1.628-.271 3.036-.814 4.224-.542 1.188-1.287 2.094-2.233 2.717-.946.623-2.02.935-3.223.935zm0-1.958c1.231 0 2.218-.506 2.958-1.518.741-1.012 1.111-2.479 1.111-4.4 0-1.921-.37-3.388-1.11-4.4-.741-1.012-1.728-1.518-2.96-1.518-1.246 0-2.24.506-2.98 1.518-.741 1.012-1.112 2.479-1.112 4.4 0 1.921.37 3.388 1.111 4.4.741 1.012 1.735 1.518 2.981 1.518zm9.936 1.914c-.41 0-.763-.143-1.056-.429-.293-.286-.44-.649-.44-1.089 0-.425.147-.781.44-1.067a1.459 1.459 0 011.056-.429c.41 0 .755.14 1.034.418.279.279.418.638.418 1.078 0 .44-.143.803-.429 1.089a1.397 1.397 0 01-1.023.429zm9.937.044c-1.218 0-2.3-.312-3.245-.935-.946-.623-1.69-1.529-2.233-2.717-.543-1.188-.814-2.596-.814-4.224 0-1.628.271-3.036.814-4.224.542-1.188 1.287-2.094 2.233-2.717.946-.623 2.027-.935 3.245-.935 1.202 0 2.277.312 3.223.935.946.623 1.69 1.529 2.233 2.717.542 1.188.814 2.596.814 4.224 0 1.628-.272 3.036-.814 4.224-.543 1.188-1.287 2.094-2.233 2.717-.946.623-2.02.935-3.223.935zm0-1.958c1.232 0 2.218-.506 2.959-1.518.74-1.012 1.11-2.479 1.11-4.4 0-1.921-.37-3.388-1.11-4.4-.741-1.012-1.727-1.518-2.96-1.518-1.246 0-2.24.506-2.98 1.518-.741 1.012-1.111 2.479-1.111 4.4 0 1.921.37 3.388 1.11 4.4.741 1.012 1.735 1.518 2.982 1.518zm22.146-2.002h-2.926V117h-2.134v-3.784h-8.558v-1.54l7.876-10.076h2.376l-7.546 9.724h5.918v-3.344h2.068v3.344h2.926v1.892zm11.323-4.29c.88.337 1.555.821 2.024 1.452.47.63.704 1.386.704 2.266 0 .924-.25 1.727-.748 2.409-.499.682-1.21 1.206-2.134 1.573-.924.367-2.01.55-3.256.55-1.232 0-2.306-.183-3.223-.55-.917-.367-1.624-.891-2.123-1.573-.499-.682-.748-1.485-.748-2.409 0-.88.231-1.635.693-2.266.462-.63 1.133-1.115 2.013-1.452-.704-.337-1.24-.785-1.606-1.342-.367-.557-.55-1.217-.55-1.98 0-.85.231-1.591.693-2.222.462-.63 1.111-1.115 1.947-1.452.836-.337 1.804-.506 2.904-.506 1.115 0 2.094.169 2.937.506.843.337 1.496.821 1.958 1.452.462.63.693 1.371.693 2.222 0 .748-.187 1.404-.561 1.969-.374.565-.913 1.016-1.617 1.353zm-3.41-5.72c-1.041 0-1.863.224-2.464.671-.601.447-.902 1.052-.902 1.815 0 .763.297 1.364.891 1.804.594.44 1.419.66 2.475.66 1.07 0 1.91-.22 2.519-.66.609-.44.913-1.041.913-1.804 0-.763-.312-1.368-.935-1.815-.623-.447-1.456-.671-2.497-.671zm0 12.188c1.217 0 2.178-.253 2.882-.759.704-.506 1.056-1.192 1.056-2.057 0-.85-.352-1.522-1.056-2.013-.704-.491-1.665-.737-2.882-.737s-2.17.246-2.86.737-1.034 1.162-1.034 2.013c0 .865.345 1.551 1.034 2.057.69.506 1.643.759 2.86.759zm21.927-2.178h-2.926V117h-2.134v-3.784h-8.558v-1.54l7.876-10.076h2.376l-7.546 9.724h5.918v-3.344h2.068v3.344h2.926v1.892zm5.91-11.616V117h-2.178v-13.486h-3.476V101.6h5.654zm8.507 0V117h-2.178v-13.486h-3.476V101.6h5.654zm8.507 0V117h-2.178v-13.486h-3.476V101.6h5.654zm8.506 0V117h-2.178v-13.486h-3.476V101.6h5.654zm21.634 7.414c.894.25 1.598.7 2.112 1.353.513.653.77 1.478.77 2.475 0 1.335-.503 2.361-1.507 3.08-1.005.719-2.468 1.078-4.39 1.078h-7.347v-15.4h6.908c1.76 0 3.12.352 4.08 1.056.961.704 1.442 1.68 1.442 2.926 0 .807-.187 1.503-.561 2.09a3.654 3.654 0 01-1.507 1.342zm-8.162-5.632v4.928h4.51c1.129 0 1.998-.209 2.607-.627.608-.418.913-1.03.913-1.837 0-.807-.305-1.419-.913-1.837-.609-.418-1.478-.627-2.607-.627h-4.51zm5.06 11.836c1.246 0 2.185-.205 2.816-.616.63-.41.946-1.056.946-1.936 0-1.716-1.254-2.574-3.762-2.574h-5.06v5.126h5.06zm12.598-11.704h-5.28V101.6h12.738v1.914h-5.28V117h-2.178v-13.486zm16.889 13.662c-1.54 0-2.93-.341-4.169-1.023a7.527 7.527 0 01-2.915-2.816c-.704-1.195-1.056-2.541-1.056-4.037s.352-2.842 1.056-4.037a7.507 7.507 0 012.926-2.816c1.247-.682 2.64-1.023 4.18-1.023 1.203 0 2.303.202 3.3.605a6.754 6.754 0 012.552 1.793l-1.43 1.386c-1.159-1.217-2.603-1.826-4.334-1.826-1.144 0-2.178.257-3.102.77a5.584 5.584 0 00-2.167 2.123c-.52.902-.781 1.91-.781 3.025s.26 2.123.781 3.025a5.584 5.584 0 002.167 2.123c.924.513 1.958.77 3.102.77 1.716 0 3.16-.616 4.334-1.848l1.43 1.386a6.844 6.844 0 01-2.563 1.804c-1.005.41-2.108.616-3.311.616z" fill="#FFF" fill-rule="nonzero" opacity=".61"/></g><g transform="translate(-4 604)"><path fill="url(#h)" opacity=".354" style="mix-blend-mode:overlay" d="M0 69h687v8H0z"/><path fill="url(#i)" opacity=".354" style="mix-blend-mode:overlay" d="M40 147h607v3H40zM40 207h607v3H40zM40 267h607v3H40zM40 327h607v3H40z"/><path fill="url(#j)" transform="matrix(-1 0 0 1 688 0)" d="M294 69h100v8H294z"/><path d="M153.5 301.531c33.59-42.796 57.63-62.973 72.124-60.531 21.74 3.663 23.737 13.758 38.376 9.5 14.639-4.258 20.965-81.788 50.983-81.788C345 168.712 355.229 279.297 390 286c34.771 6.703 43.74-45 65.697-45 21.956 0 31.62 15.71 60.85 15.71C545.78 256.71 559 236.242 575 241c16 4.757 18.052 52 36.5 52s9.885-78.749 35.5-101.657c2.41-2.155 2.41-1.017 0 3.414V327H153.5v-25.469z" fill="#3C176B" opacity=".501"/><path d="M153.5 301.531c33.59-42.796 57.63-62.973 72.124-60.531 21.74 3.663 23.737 13.758 38.376 9.5 14.639-4.258 20.965-81.788 50.983-81.788C345 168.712 355.229 279.297 390 286c34.771 6.703 43.74-45 65.697-45 21.956 0 31.62 15.71 60.85 15.71C545.78 256.71 559 236.242 575 241c16 4.757 18.052 52 36.5 52s9.225-77.786 34.84-100.694" stroke="url(#k)" stroke-width="4" stroke-linecap="square"/><text font-family="Montserrat-Medium, Montserrat" font-size="22" font-weight="400" letter-spacing=".367" fill="#FFF"><tspan x="40" y="116">1 250 K</tspan></text><text font-family="Montserrat-Medium, Montserrat" font-size="22" font-weight="400" letter-spacing=".367" fill="#FFF"><tspan x="40" y="176">1 000 K</tspan></text><text font-family="Montserrat-Medium, Montserrat" font-size="22" font-weight="400" letter-spacing=".367" fill="#FFF"><tspan x="40" y="236">750 K</tspan></text><text font-family="Montserrat-Medium, Montserrat" font-size="22" font-weight="400" letter-spacing=".367" fill="#FFF"><tspan x="40" y="296">500 K</tspan></text><circle fill="#FF789E" cx="344" cy="209" r="12"/></g></g></g></svg>