<svg viewBox="0 0 687 969" xmlns="http://www.w3.org/2000/svg" xmlns:xlink="http://www.w3.org/1999/xlink"><defs><linearGradient x1="7.061%" y1="7.971%" x2="113.519%" y2="109.64%" id="c"><stop stop-color="#4D128B" offset="0%"/><stop stop-color="#9C53B7" offset="100%"/></linearGradient><linearGradient x1="0%" y1="100%" x2="100%" y2="0%" id="d"><stop stop-color="#FFFAB5" offset="0%"/><stop stop-color="#FFF" offset="100%"/></linearGradient><linearGradient x1="-10.154%" y1="100%" x2="113.739%" y2="0%" id="e"><stop stop-color="#FFEB4F" offset="0%"/><stop stop-color="#00E300" offset="100%"/></linearGradient><linearGradient x1="-4.554%" y1="86.952%" x2="100%" y2="0%" id="h"><stop stop-color="#FF5D5D" offset="0%"/><stop stop-color="#FF003E" offset="100%"/></linearGradient><path id="a" d="M0 0h694v969H0z"/><filter x="-48.5%" y="-143.2%" width="197%" height="397.1%" filterUnits="objectBoundingBox" id="f"><feOffset dy="1" in="SourceAlpha" result="shadowOffsetOuter1"/><feGaussianBlur stdDeviation="9" in="shadowOffsetOuter1" result="shadowBlurOuter1"/><feColorMatrix values="0 0 0 0 0 0 0 0 0 0 0 0 0 0 0 0 0 0 0.408107517 0" in="shadowBlurOuter1"/></filter><filter x="-41.9%" y="-140.8%" width="183.7%" height="392.2%" filterUnits="objectBoundingBox" id="i"><feOffset dy="1" in="SourceAlpha" result="shadowOffsetOuter1"/><feGaussianBlur stdDeviation="9" in="shadowOffsetOuter1" result="shadowBlurOuter1"/><feColorMatrix values="0 0 0 0 0 0 0 0 0 0 0 0 0 0 0 0 0 0 0.408107517 0" in="shadowBlurOuter1"/></filter></defs><g transform="translate(-3)" fill="none" fill-rule="evenodd"><mask id="b" fill="#fff"><use xlink:href="#a"/></mask><use fill-opacity="0" fill="#D8D8D8" fill-rule="nonzero" xlink:href="#a"/><g mask="url(#b)"><path fill="url(#c)" d="M0 0h687v1498H0z" transform="translate(3)"/><path d="M597 303.773v1.454c0 .403-.141.746-.424 1.029a1.401 1.401 0 01-1.03.424H583.68v11.867c0 .404-.142.747-.424 1.03a1.401 1.401 0 01-1.03.423h-1.453c-.403 0-.746-.141-1.029-.424a1.401 1.401 0 01-.424-1.03V306.68h-11.867c-.404 0-.747-.142-1.03-.424a1.401 1.401 0 01-.423-1.03v-1.453c0-.403.141-.746.424-1.029a1.401 1.401 0 011.03-.424h11.866v-11.867c0-.404.142-.747.424-1.03a1.401 1.401 0 011.03-.423h1.453c.403 0 .746.141 1.029.424.282.282.424.625.424 1.03v11.866h11.867c.404 0 .747.142 1.03.424.282.283.423.626.423 1.03zm22 .227c0 6.844-1.711 13.177-5.133 19-3.422 5.823-8.044 10.445-13.867 13.867-5.823 3.422-12.156 5.133-19 5.133-6.844 0-13.177-1.711-19-5.133-5.823-3.422-10.445-8.044-13.867-13.867-3.422-5.823-5.133-12.156-5.133-19 0-6.844 1.711-13.177 5.133-19 3.422-5.823 8.044-10.445 13.867-13.867 5.823-3.422 12.156-5.133 19-5.133 6.844 0 13.177 1.711 19 5.133 5.823 3.422 10.445 8.044 13.867 13.867 3.422 5.823 5.133 12.156 5.133 19zm-4 0c0-6.191-1.522-11.884-4.565-17.079-3.043-5.194-7.188-9.313-12.435-12.356-5.247-3.043-10.94-4.565-17.079-4.565-6.139 0-11.805 1.522-17 4.565-5.194 3.043-9.313 7.188-12.356 12.435-3.043 5.247-4.565 10.94-4.565 17.079 0 6.139 1.522 11.805 4.565 17 3.043 5.194 7.188 9.313 12.435 12.356 5.247 3.043 10.94 4.565 17.079 4.565 6.139 0 11.805-1.522 17-4.565 5.194-3.043 9.313-7.188 12.356-12.435 3.043-5.247 4.565-10.914 4.565-17zM364.02 340.416V344H336.3v-39.2h26.88v3.584h-22.736v13.944h20.272v3.528h-20.272v14.56h23.576zm38.464 0V344h-27.72v-39.2h26.88v3.584h-22.736v13.944h20.272v3.528h-20.272v14.56h23.576zM437.812 344l-12.656-17.248-12.6 17.248h-4.76l14.896-20.16-13.944-19.04h4.76l11.816 16.016 11.76-16.016h4.48l-13.888 18.928L442.628 344h-4.816z" fill="#FFF" fill-rule="nonzero"/><g transform="translate(43 388)"><rect fill="url(#d)" opacity=".354" style="mix-blend-mode:overlay" width="605" height="256" rx="10"/><rect fill="#FFF" x="24" y="40" width="556" height="80" rx="40"/><path d="M360 40h180c22.091 0 40 17.909 40 40s-17.909 40-40 40H360V40z" fill="#F1F1F2"/><rect fill="url(#e)" x="360" y="144" width="220" height="80" rx="40"/><g fill-rule="nonzero"><use fill="#000" filter="url(#f)" xlink:href="#g"/><use fill="#FFF" xlink:href="#g"/></g><path d="M71.42 70.4V90h-2.772V72.836h-4.424V70.4h7.196zM84.1 90.224c-1.548 0-2.925-.397-4.13-1.19-1.203-.793-2.15-1.946-2.841-3.458-.69-1.512-1.036-3.304-1.036-5.376 0-2.072.345-3.864 1.036-5.376.69-1.512 1.638-2.665 2.842-3.458 1.204-.793 2.58-1.19 4.13-1.19 1.53 0 2.898.397 4.102 1.19 1.204.793 2.151 1.946 2.842 3.458.69 1.512 1.036 3.304 1.036 5.376 0 2.072-.345 3.864-1.036 5.376-.69 1.512-1.638 2.665-2.842 3.458-1.204.793-2.571 1.19-4.102 1.19zm0-2.492c1.569 0 2.824-.644 3.767-1.932.943-1.288 1.414-3.155 1.414-5.6s-.471-4.312-1.414-5.6c-.943-1.288-2.198-1.932-3.766-1.932-1.587 0-2.851.644-3.794 1.932-.943 1.288-1.414 3.155-1.414 5.6s.471 4.312 1.414 5.6c.943 1.288 2.207 1.932 3.794 1.932zm19.066 2.492c-1.55 0-2.926-.397-4.13-1.19-1.204-.793-2.152-1.946-2.842-3.458-.69-1.512-1.036-3.304-1.036-5.376 0-2.072.345-3.864 1.036-5.376.69-1.512 1.638-2.665 2.842-3.458 1.204-.793 2.58-1.19 4.13-1.19 1.53 0 2.898.397 4.102 1.19 1.204.793 2.151 1.946 2.842 3.458.69 1.512 1.036 3.304 1.036 5.376 0 2.072-.346 3.864-1.036 5.376-.69 1.512-1.638 2.665-2.842 3.458-1.204.793-2.572 1.19-4.102 1.19zm0-2.492c1.568 0 2.823-.644 3.766-1.932.942-1.288 1.414-3.155 1.414-5.6s-.472-4.312-1.414-5.6c-.943-1.288-2.198-1.932-3.766-1.932-1.587 0-2.852.644-3.794 1.932-.943 1.288-1.414 3.155-1.414 5.6s.471 4.312 1.414 5.6c.942 1.288 2.207 1.932 3.794 1.932z" fill="#5B5662" fill-rule="nonzero" opacity=".596"/><path d="M533.644 83.136l-6.82-6.82a.814.814 0 01-.246-.598c0-.234.082-.433.246-.597l.773-.774a.88.88 0 01.598-.263.756.756 0 01.598.228l5.449 5.45 5.449-5.45a.756.756 0 01.598-.228.88.88 0 01.597.263l.774.774a.814.814 0 01.246.597.814.814 0 01-.246.598l-6.82 6.82a.766.766 0 01-.598.282.766.766 0 01-.598-.282z" fill="#5B5662" fill-rule="nonzero"/></g><g transform="translate(43 678)"><rect fill="url(#d)" opacity=".354" style="mix-blend-mode:overlay" width="605" height="256" rx="10"/><rect fill="#FFF" x="24" y="40" width="556" height="80" rx="40"/><path d="M360 40h180c22.091 0 40 17.909 40 40s-17.909 40-40 40H360V40z" fill="#F1F1F2"/><rect fill="url(#h)" x="360" y="144" width="220" height="80" rx="40"/><g fill-rule="nonzero"><use fill="#000" filter="url(#i)" xlink:href="#j"/><use fill="#FFF" xlink:href="#j"/></g><path d="M71.42 70.4V90h-2.772V72.836h-4.424V70.4h7.196zM84.1 90.224c-1.548 0-2.925-.397-4.13-1.19-1.203-.793-2.15-1.946-2.841-3.458-.69-1.512-1.036-3.304-1.036-5.376 0-2.072.345-3.864 1.036-5.376.69-1.512 1.638-2.665 2.842-3.458 1.204-.793 2.58-1.19 4.13-1.19 1.53 0 2.898.397 4.102 1.19 1.204.793 2.151 1.946 2.842 3.458.69 1.512 1.036 3.304 1.036 5.376 0 2.072-.345 3.864-1.036 5.376-.69 1.512-1.638 2.665-2.842 3.458-1.204.793-2.571 1.19-4.102 1.19zm0-2.492c1.569 0 2.824-.644 3.767-1.932.943-1.288 1.414-3.155 1.414-5.6s-.471-4.312-1.414-5.6c-.943-1.288-2.198-1.932-3.766-1.932-1.587 0-2.851.644-3.794 1.932-.943 1.288-1.414 3.155-1.414 5.6s.471 4.312 1.414 5.6c.943 1.288 2.207 1.932 3.794 1.932zm19.066 2.492c-1.55 0-2.926-.397-4.13-1.19-1.204-.793-2.152-1.946-2.842-3.458-.69-1.512-1.036-3.304-1.036-5.376 0-2.072.345-3.864 1.036-5.376.69-1.512 1.638-2.665 2.842-3.458 1.204-.793 2.58-1.19 4.13-1.19 1.53 0 2.898.397 4.102 1.19 1.204.793 2.151 1.946 2.842 3.458.69 1.512 1.036 3.304 1.036 5.376 0 2.072-.346 3.864-1.036 5.376-.69 1.512-1.638 2.665-2.842 3.458-1.204.793-2.572 1.19-4.102 1.19zm0-2.492c1.568 0 2.823-.644 3.766-1.932.942-1.288 1.414-3.155 1.414-5.6s-.472-4.312-1.414-5.6c-.943-1.288-2.198-1.932-3.766-1.932-1.587 0-2.852.644-3.794 1.932-.943 1.288-1.414 3.155-1.414 5.6s.471 4.312 1.414 5.6c.942 1.288 2.207 1.932 3.794 1.932z" fill="#5B5662" fill-rule="nonzero" opacity=".596"/><path d="M533.644 83.136l-6.82-6.82a.814.814 0 01-.246-.598c0-.234.082-.433.246-.597l.773-.774a.88.88 0 01.598-.263.756.756 0 01.598.228l5.449 5.45 5.449-5.45a.756.756 0 01.598-.228.88.88 0 01.597.263l.774.774a.814.814 0 01.246.597.814.814 0 01-.246.598l-6.82 6.82a.766.766 0 01-.598.282.766.766 0 01-.598-.282z" fill="#5B5662" fill-rule="nonzero"/></g></g></g></svg>