<svg viewBox="0 0 687 963" xmlns="http://www.w3.org/2000/svg" xmlns:xlink="http://www.w3.org/1999/xlink"><defs><linearGradient x1="40.969%" y1="7.971%" x2="63.36%" y2="109.64%" id="c"><stop stop-color="#4D128B" offset="0%"/><stop stop-color="#9C53B7" offset="100%"/></linearGradient><linearGradient x1="0%" y1="100%" x2="100%" y2="0%" id="d"><stop stop-color="#FFFAB5" offset="0%"/><stop stop-color="#FFF" offset="100%"/></linearGradient><linearGradient x1="-5.231%" y1="50%" x2="100%" y2="50%" id="e"><stop stop-color="#FF8C2E" offset="0%"/><stop stop-color="#DDFB00" offset="100%"/></linearGradient><linearGradient x1="0%" y1="50%" x2="100%" y2="50%" id="f"><stop stop-color="#19F477" offset="0%"/><stop stop-color="#00DDF9" offset="100%"/></linearGradient><path id="a" d="M0 0h694v969H0z"/></defs><g transform="translate(-3 -6)" fill="none" fill-rule="evenodd"><mask id="b" fill="#fff"><use xlink:href="#a"/></mask><use fill-opacity="0" fill="#D8D8D8" fill-rule="nonzero" xlink:href="#a"/><g mask="url(#b)"><path d="M597 309.773v1.454c0 .403-.141.746-.424 1.029a1.401 1.401 0 01-1.03.424H583.68v11.867c0 .404-.142.747-.424 1.03a1.401 1.401 0 01-1.03.423h-1.453c-.403 0-.746-.141-1.029-.424a1.401 1.401 0 01-.424-1.03V312.68h-11.867c-.404 0-.747-.142-1.03-.424a1.401 1.401 0 01-.423-1.03v-1.453c0-.403.141-.746.424-1.029a1.401 1.401 0 011.03-.424h11.866v-11.867c0-.404.142-.747.424-1.03a1.401 1.401 0 011.03-.423h1.453c.403 0 .746.141 1.029.424.282.282.424.625.424 1.03v11.866h11.867c.404 0 .747.142 1.03.424.282.283.423.626.423 1.03zm22 .227c0 6.844-1.711 13.177-5.133 19-3.422 5.823-8.044 10.445-13.867 13.867-5.823 3.422-12.156 5.133-19 5.133-6.844 0-13.177-1.711-19-5.133-5.823-3.422-10.445-8.044-13.867-13.867-3.422-5.823-5.133-12.156-5.133-19 0-6.844 1.711-13.177 5.133-19 3.422-5.823 8.044-10.445 13.867-13.867 5.823-3.422 12.156-5.133 19-5.133 6.844 0 13.177 1.711 19 5.133 5.823 3.422 10.445 8.044 13.867 13.867 3.422 5.823 5.133 12.156 5.133 19zm-4 0c0-6.191-1.522-11.884-4.565-17.079-3.043-5.194-7.188-9.313-12.435-12.356-5.247-3.043-10.94-4.565-17.079-4.565-6.139 0-11.805 1.522-17 4.565-5.194 3.043-9.313 7.188-12.356 12.435-3.043 5.247-4.565 10.94-4.565 17.079 0 6.139 1.522 11.805 4.565 17 3.043 5.194 7.188 9.313 12.435 12.356 5.247 3.043 10.94 4.565 17.079 4.565 6.139 0 11.805-1.522 17-4.565 5.194-3.043 9.313-7.188 12.356-12.435 3.043-5.247 4.565-10.914 4.565-17zM364.02 346.416V350H336.3v-39.2h26.88v3.584h-22.736v13.944h20.272v3.528h-20.272v14.56h23.576zm38.464 0V350h-27.72v-39.2h26.88v3.584h-22.736v13.944h20.272v3.528h-20.272v14.56h23.576zM437.812 350l-12.656-17.248-12.6 17.248h-4.76l14.896-20.16-13.944-19.04h4.76l11.816 16.016 11.76-16.016h4.48l-13.888 18.928L442.628 350h-4.816z" fill="#FFF" fill-rule="nonzero"/><g transform="translate(43 394)"><rect fill="url(#d)" opacity=".12" style="mix-blend-mode:overlay" width="605" height="160" rx="10"/><rect fill="url(#e)" x="374" y="86" width="210" height="42" rx="21"/><path d="M311.872 54.116v-4.5h10.188v4.5h-10.188zm30.042 8.316c-6.192 0-10.8-4.716-10.8-13.032 0-8.316 4.608-13.032 10.8-13.032 6.228 0 10.8 4.716 10.8 13.032 0 8.316-4.572 13.032-10.8 13.032zm0-4.932c2.916 0 4.932-2.376 4.932-8.1s-2.016-8.1-4.932-8.1c-2.88 0-4.896 2.376-4.896 8.1s2.016 8.1 4.896 8.1zm17.13 4.788c-1.943 0-3.491-1.476-3.491-3.528 0-2.088 1.548-3.456 3.492-3.456s3.492 1.368 3.492 3.456c0 2.052-1.548 3.528-3.492 3.528zM364.08 36.8h10.872V62h-5.832V41.48h-5.04V36.8zm27.68 10.26c4.535.72 6.84 3.528 6.84 7.236 0 4.248-3.277 8.136-10.44 8.136-3.529 0-7.165-.972-9.613-2.7l2.268-4.464c1.908 1.44 4.572 2.268 7.2 2.268 2.916 0 4.716-1.188 4.716-3.24 0-1.908-1.404-3.096-4.716-3.096h-2.664v-3.852l5.184-5.868h-10.728V36.8h17.64v3.78l-5.688 6.48zm21.774 0c4.536.72 6.84 3.528 6.84 7.236 0 4.248-3.276 8.136-10.44 8.136-3.528 0-7.164-.972-9.612-2.7l2.268-4.464c1.908 1.44 4.572 2.268 7.2 2.268 2.916 0 4.716-1.188 4.716-3.24 0-1.908-1.404-3.096-4.716-3.096h-2.664v-3.852l5.184-5.868h-10.728V36.8h17.64v3.78l-5.688 6.48zm33.259 4.896v4.752h-4.104V62H437v-5.292h-13.572v-3.924l11.88-15.984h6.12l-11.016 15.156h6.768V47.24h5.508v4.716h4.104zm14.503-5.76c4.86 0 8.676 3.096 8.676 7.848 0 5.148-4.212 8.388-9.54 8.388-6.948 0-11.268-4.356-11.268-12.492 0-8.712 5.256-13.572 12.852-13.572 2.664 0 5.256.612 7.02 1.728l-2.16 4.284c-1.404-.936-3.024-1.26-4.716-1.26-4.212 0-6.912 2.484-7.092 7.308 1.476-1.476 3.6-2.232 6.228-2.232zm-1.188 11.88c2.484 0 4.212-1.44 4.212-3.744 0-2.304-1.692-3.78-4.284-3.78-2.556 0-4.356 1.584-4.356 3.78 0 2.16 1.62 3.744 4.428 3.744zm35.707-6.12v4.752h-4.104V62h-5.688v-5.292H472.45v-3.924L484.33 36.8h6.12l-11.016 15.156h6.768V47.24h5.508v4.716h4.104zm33.721 7.74V62h-17.82V36.8h17.28v2.304H514.38v8.964h13.032v2.268H514.38v9.36h15.156zm24.727 0V62h-17.82V36.8h17.28v2.304h-14.616v8.964h13.032v2.268h-13.032v9.36h15.156zM576.65 62l-8.136-11.088-8.1 11.088h-3.06l9.576-12.96-8.964-12.24h3.06l7.596 10.296 7.56-10.296h2.88l-8.928 12.168L579.745 62h-3.096z" fill="#FF81B5" fill-rule="nonzero"/></g><g transform="translate(43 584)"><rect fill="url(#d)" opacity=".12" style="mix-blend-mode:overlay" width="605" height="160" rx="10"/><rect fill="url(#f)" x="393" y="86" width="190" height="42" rx="21"/><path d="M330.803 54.116v-4.5h10.188v4.5h-10.188zm30.042 8.316c-6.192 0-10.8-4.716-10.8-13.032 0-8.316 4.608-13.032 10.8-13.032 6.228 0 10.8 4.716 10.8 13.032 0 8.316-4.572 13.032-10.8 13.032zm0-4.932c2.916 0 4.932-2.376 4.932-8.1s-2.016-8.1-4.932-8.1c-2.88 0-4.896 2.376-4.896 8.1s2.016 8.1 4.896 8.1zm17.13 4.788c-1.944 0-3.492-1.476-3.492-3.528 0-2.088 1.548-3.456 3.492-3.456s3.492 1.368 3.492 3.456c0 2.052-1.548 3.528-3.492 3.528zm17.095.144c-6.192 0-10.8-4.716-10.8-13.032 0-8.316 4.608-13.032 10.8-13.032 6.228 0 10.8 4.716 10.8 13.032 0 8.316-4.572 13.032-10.8 13.032zm0-4.932c2.916 0 4.932-2.376 4.932-8.1s-2.016-8.1-4.932-8.1c-2.88 0-4.896 2.376-4.896 8.1s2.016 8.1 4.896 8.1zm23.143-21.132c6.984 0 11.268 4.356 11.268 12.492 0 8.712-5.22 13.572-12.852 13.572-2.664 0-5.22-.612-6.984-1.728l2.16-4.284c1.368.936 2.988 1.26 4.716 1.26 4.176 0 6.912-2.484 7.092-7.344-1.476 1.476-3.636 2.268-6.264 2.268-4.86 0-8.676-3.096-8.676-7.848 0-5.148 4.212-8.388 9.54-8.388zm.432 11.88c2.556 0 4.32-1.584 4.32-3.78 0-2.16-1.62-3.744-4.392-3.744-2.484 0-4.212 1.44-4.212 3.744 0 2.304 1.692 3.78 4.284 3.78zm25.699-1.188c4.536.72 6.84 3.528 6.84 7.236 0 4.248-3.276 8.136-10.44 8.136-3.528 0-7.164-.972-9.612-2.7l2.268-4.464c1.908 1.44 4.572 2.268 7.2 2.268 2.916 0 4.716-1.188 4.716-3.24 0-1.908-1.404-3.096-4.716-3.096h-2.664v-3.852l5.184-5.868h-10.728V36.8h17.64v3.78l-5.688 6.48zm17.995 10.188h10.836V62H454.13v-3.78l9.72-9.18c2.232-2.124 2.628-3.42 2.628-4.644 0-1.98-1.368-3.132-4.032-3.132-2.16 0-3.996.828-5.22 2.52l-4.248-2.736c1.944-2.844 5.472-4.68 10.008-4.68 5.616 0 9.36 2.88 9.36 7.452 0 2.448-.684 4.68-4.212 7.956l-5.796 5.472zm25.663-10.188c4.536.72 6.84 3.528 6.84 7.236 0 4.248-3.276 8.136-10.44 8.136-3.528 0-7.164-.972-9.612-2.7l2.268-4.464c1.908 1.44 4.572 2.268 7.2 2.268 2.916 0 4.716-1.188 4.716-3.24 0-1.908-1.404-3.096-4.716-3.096h-2.664v-3.852l5.184-5.868H476.05V36.8h17.64v3.78l-5.688 6.48zm41.533 12.636V62h-17.82V36.8h17.28v2.304H514.38v8.964h13.032v2.268H514.38v9.36h15.156zm24.727 0V62h-17.82V36.8h17.28v2.304h-14.616v8.964h13.032v2.268h-13.032v9.36h15.156zM576.65 62l-8.136-11.088-8.1 11.088h-3.06l9.576-12.96-8.964-12.24h3.06l7.596 10.296 7.56-10.296h2.88l-8.928 12.168L579.745 62h-3.096z" fill="#FF81B5" fill-rule="nonzero"/></g><g transform="translate(43 774)"><rect fill="url(#d)" opacity=".12" style="mix-blend-mode:overlay" width="605" height="160" rx="10"/><rect fill="url(#f)" x="391" y="86" width="190" height="42" rx="21"/><path d="M329.252 36.8h10.872V62h-5.832V41.48h-5.04V36.8zm38.983 15.156v4.752h-4.104V62h-5.688v-5.292H344.87v-3.924L356.75 36.8h6.12l-11.016 15.156h6.768V47.24h5.508v4.716h4.104zm6.403 10.332c-1.944 0-3.492-1.476-3.492-3.528 0-2.088 1.548-3.456 3.492-3.456s3.492 1.368 3.492 3.456c0 2.052-1.548 3.528-3.492 3.528zm17.095.144c-6.192 0-10.8-4.716-10.8-13.032 0-8.316 4.608-13.032 10.8-13.032 6.228 0 10.8 4.716 10.8 13.032 0 8.316-4.572 13.032-10.8 13.032zm0-4.932c2.916 0 4.932-2.376 4.932-8.1s-2.016-8.1-4.932-8.1c-2.88 0-4.896 2.376-4.896 8.1s2.016 8.1 4.896 8.1zm13.674-20.7h20.196v3.78L416.243 62h-6.336l9.036-20.448h-8.352v4.104h-5.184V36.8zm22.64 0h10.871V62h-5.832V41.48h-5.04V36.8zm38.982 15.156v4.752h-4.104V62h-5.688v-5.292h-13.572v-3.924l11.88-15.984h6.12L450.65 51.956h6.768V47.24h5.508v4.716h4.104zm11.083-15.588c6.984 0 11.268 4.356 11.268 12.492 0 8.712-5.22 13.572-12.852 13.572-2.664 0-5.22-.612-6.984-1.728l2.16-4.284c1.368.936 2.988 1.26 4.716 1.26 4.176 0 6.912-2.484 7.092-7.344-1.476 1.476-3.636 2.268-6.264 2.268-4.86 0-8.676-3.096-8.676-7.848 0-5.148 4.212-8.388 9.54-8.388zm.432 11.88c2.556 0 4.32-1.584 4.32-3.78 0-2.16-1.62-3.744-4.392-3.744-2.484 0-4.212 1.44-4.212 3.744 0 2.304 1.692 3.78 4.284 3.78zm45.638 11.448V62h-17.82V36.8h17.28v2.304h-14.616v8.964h13.032v2.268h-13.032v9.36h15.156zm24.727 0V62h-17.82V36.8h17.28v2.304h-14.616v8.964h13.032v2.268h-13.032v9.36h15.156zM571.295 62l-8.136-11.088L555.06 62H552l9.576-12.96-8.964-12.24h3.06l7.596 10.296 7.56-10.296h2.88l-8.928 12.168L574.391 62h-3.096z" fill="#A2FF99" fill-rule="nonzero"/></g></g></g></svg>