<svg viewBox="0 0 102 102" xmlns="http://www.w3.org/2000/svg" xmlns:xlink="http://www.w3.org/1999/xlink"><defs><linearGradient x1="-23.022%" y1="88.154%" x2="107.914%" y2="10.432%" id="b"><stop stop-color="#F12D2D" offset="0%"/><stop stop-color="#E1F701" offset="100%"/></linearGradient><ellipse id="a" cx="50.582" cy="50.567" rx="50.582" ry="50.567"/></defs><g transform="translate(.671 .026)" fill="none" fill-rule="evenodd"><mask id="c" fill="#fff"><use xlink:href="#a"/></mask><use fill="url(#b)" xlink:href="#a"/><path d="M51.429 60.483c-3.704 0-7.117-.9-10.24-2.7a19.771 19.771 0 01-7.381-7.384c-1.8-3.123-2.7-6.537-2.7-10.243 0-3.705.9-7.119 2.7-10.242a19.771 19.771 0 017.382-7.384c3.122-1.8 6.535-2.7 10.239-2.7 3.704 0 7.117.9 10.24 2.7a19.771 19.771 0 017.381 7.384c1.8 3.123 2.699 6.537 2.699 10.242 0 3.706-.9 7.12-2.699 10.243a19.771 19.771 0 01-7.382 7.384c-3.122 1.8-6.535 2.7-10.24 2.7zm14.03 5.24c3.616.106 6.948 1.138 9.996 3.096a21.226 21.226 0 017.206 7.702c1.756 3.176 2.635 6.617 2.635 10.322v6.67c0 2.117-.724 3.917-2.17 5.399-1.446 1.482-3.203 2.223-5.269 2.223h-54.55c-2.066 0-3.822-.741-5.268-2.223-1.447-1.482-2.17-3.282-2.17-5.4v-6.669c0-3.705.878-7.146 2.634-10.322a21.226 21.226 0 017.207-7.702c3.047-1.958 6.38-2.99 9.995-3.096l7.439 30.33 4.959-21.596-4.96-8.893h14.878l-4.96 8.893 4.96 21.596 7.438-30.33z" fill="#FFF" fill-rule="nonzero" opacity=".502" style="mix-blend-mode:lighten" mask="url(#c)"/></g></svg>