<svg viewBox="0 0 28 28" xmlns="http://www.w3.org/2000/svg"><path d="M11.937 2.188L13.312.813a1.447 1.447 0 011.063-.438c.417 0 .77.146 1.062.438l12.125 12.125c.292.291.438.645.438 1.062 0 .417-.146.77-.438 1.063L15.437 27.187a1.447 1.447 0 01-1.062.438c-.417 0-.77-.146-1.063-.438l-1.375-1.375c-.333-.291-.49-.645-.468-1.062.02-.417.177-.77.468-1.062l7.5-7.188H1.5c-.417 0-.77-.146-1.063-.437A1.447 1.447 0 010 15v-2c0-.417.146-.77.437-1.062A1.447 1.447 0 011.5 11.5h17.937l-7.5-7.187a1.563 1.563 0 01-.468-1.063c-.021-.417.135-.77.468-1.062z" fill="#FFF" fill-rule="nonzero"/></svg>