<svg viewBox="0 0 100 141" xmlns="http://www.w3.org/2000/svg"><defs><linearGradient x1="46.097%" y1="97.293%" x2="73.385%" y2="-19.281%" id="pin"><stop stop-color="#FF2DD6" offset="0%"/><stop stop-color="#FF120C" offset="100%"/></linearGradient></defs><g fill="none" fill-rule="evenodd"><path d="M50 99.263c6.369-9.122 11.569-17.358 15.594-24.676C72.08 62.79 75 54.25 75 50.074 75 36.218 63.799 25 50 25S25 36.218 25 50.074c0 4.177 2.92 12.717 9.406 24.513C38.431 81.905 43.631 90.14 50 99.263z" stroke="url(#pin)" stroke-width="50"/><path d="M43.031 78.016L24.766 59.859c-.51-.51-.766-1.166-.766-1.968s.255-1.459.766-1.97l4.046-3.937c.51-.583 1.149-.875 1.915-.875.765 0 1.44.292 2.023.875L45 64.234l26.25-26.25c.583-.583 1.258-.875 2.023-.875.766 0 1.404.292 1.914.875l4.047 3.938c.51.51.766 1.167.766 1.969s-.255 1.458-.766 1.968L46.97 78.016c-.51.583-1.167.875-1.97.875-.801 0-1.457-.292-1.968-.875z" fill="#FFF" fill-rule="nonzero"/></g></svg>