<svg viewBox="0 0 694 969" xmlns="http://www.w3.org/2000/svg" xmlns:xlink="http://www.w3.org/1999/xlink"> <defs> <linearGradient x1="7.061%" y1="7.971%" x2="113.519%" y2="109.64%" id="send-money-d"> <stop stop-color="#4D128B" offset="0%"/> <stop stop-color="#9C53B7" offset="100%"/> </linearGradient> <linearGradient x1="0%" y1="100%" x2="100%" y2="0%" id="send-money-e"> <stop stop-color="#FFFAB5" offset="0%"/> <stop stop-color="#FFF" offset="100%"/> </linearGradient> <linearGradient x1="-9.234%" y1="71.276%" x2="108.957%" y2="31.042%" id="send-money-f"> <stop stop-color="#FFEB4F" offset="0%"/> <stop stop-color="#00E300" offset="100%"/> </linearGradient> <path id="send-money-a" d="M0 0h694v969H0z"/> <path id="send-money-c" d="M0 0h694.874v1515H0z"/> <filter x="-8.1%" y="-76.2%" width="116.2%" height="262.8%" filterUnits="objectBoundingBox" id="send-money-g"> <feOffset dy="1" in="SourceAlpha" result="shadowOffsetOuter1"/> <feGaussianBlur stdDeviation="5" in="shadowOffsetOuter1" result="shadowBlurOuter1"/> <feColorMatrix values="0 0 0 0 0 0 0 0 0 0 0 0 0 0 0 0 0 0 0.319766171 0" in="shadowBlurOuter1"/> </filter> </defs> <g fill="none" fill-rule="evenodd"> <mask id="send-money-b" fill="#fff"> <use xlink:href="#send-money-a"/> </mask> <use fill-opacity="0" fill="#D8D8D8" fill-rule="nonzero" xlink:href="#send-money-a"/> <g mask="url(#send-money-b)"> <path d="M57.539 478.368h591.934c5.523 0 10 4.477 10 10v354.199c0 5.523-4.477 10-10 10H57.539c-5.523 0-10-4.477-10-10v-354.2c0-5.522 4.477-10 10-10z" fill="url(#send-money-e)" opacity=".15" style="mix-blend-mode:overlay" transform="translate(-6)"/> <path d="M186.687 639.779h21.994v50.972h-11.798v-41.506h-10.196v-9.466zm38.879 51.555c-3.933 0-7.064-2.986-7.064-7.137 0-4.223 3.131-6.99 7.064-6.99 3.932 0 7.064 2.767 7.064 6.99 0 4.151-3.132 7.137-7.064 7.137zm34.581.29c-12.526 0-21.847-9.538-21.847-26.359 0-16.82 9.321-26.36 21.847-26.36 12.599 0 21.848 9.54 21.848 26.36s-9.249 26.36-21.848 26.36zm0-9.975c5.9 0 9.977-4.806 9.977-16.384s-4.078-16.384-9.977-16.384c-5.826 0-9.904 4.806-9.904 16.384s4.078 16.384 9.904 16.384zm75.582-11.214v9.612h-8.302v10.704h-11.506v-10.704h-27.455v-7.937l24.032-32.331h12.38l-22.284 30.656h13.691v-9.539h11.142v9.539h8.302zm68.217 15.656v4.66h-36.049v-50.972h34.956v4.66h-29.567v18.132h26.363v4.587h-26.363v18.933h30.66zm50.02 0v4.66h-36.048v-50.972h34.956v4.66h-29.567v18.132h26.363v4.587h-26.363v18.933h30.66zm45.287 4.66l-16.458-22.428-16.386 22.428h-6.19l19.371-26.214-18.133-24.758h6.19l15.366 20.826 15.294-20.826h5.826l-18.061 24.612 19.444 26.36h-6.263z" fill="#FFF" fill-rule="nonzero"/> <path d="M216.343 599.01c.988.275 1.764.772 2.33 1.492.567.72.85 1.63.85 2.731 0 1.472-.554 2.605-1.662 3.398-1.109.793-2.723 1.19-4.843 1.19h-8.108V590.83h7.622c1.942 0 3.443.388 4.503 1.165s1.59 1.853 1.59 3.228c0 .89-.206 1.659-.619 2.306a4.032 4.032 0 01-1.663 1.48zm-9.006-6.214v5.437h4.977c1.246 0 2.205-.23 2.876-.692.672-.461 1.008-1.137 1.008-2.027 0-.89-.336-1.565-1.008-2.026-.671-.462-1.63-.692-2.876-.692h-4.977zm5.584 13.058c1.375 0 2.411-.226 3.107-.68.696-.452 1.044-1.164 1.044-2.135 0-1.893-1.384-2.84-4.151-2.84h-5.584v5.655h5.584zm14.98-11.02c1.78 0 3.144.438 4.09 1.311.947.874 1.42 2.177 1.42 3.908v7.767h-2.208v-1.699c-.389.6-.943 1.056-1.663 1.372-.72.315-1.574.473-2.561.473-1.44 0-2.594-.348-3.46-1.044-.865-.695-1.298-1.61-1.298-2.742 0-1.133.412-2.043 1.238-2.731.825-.688 2.136-1.032 3.932-1.032h3.69v-.46c0-1.004-.291-1.773-.874-2.307-.582-.534-1.44-.8-2.573-.8-.76 0-1.505.125-2.233.376-.728.25-1.343.586-1.845 1.007l-.971-1.748c.663-.534 1.456-.942 2.379-1.226a9.955 9.955 0 012.937-.424zm-.534 11.336c.89 0 1.659-.198 2.306-.595a3.403 3.403 0 001.408-1.687v-1.796h-3.593c-1.974 0-2.961.664-2.961 1.99 0 .648.25 1.157.752 1.53.502.372 1.198.558 2.088.558zm10.635-16.36h2.33v18.01h-2.33v-18.01zm11.728 5.025c1.78 0 3.143.437 4.09 1.31.947.874 1.42 2.177 1.42 3.908v7.767h-2.209v-1.699c-.388.6-.942 1.056-1.663 1.372-.72.315-1.573.473-2.56.473-1.441 0-2.594-.348-3.46-1.044-.866-.695-1.299-1.61-1.299-2.742 0-1.133.413-2.043 1.238-2.731.826-.688 2.137-1.032 3.933-1.032h3.69v-.46c0-1.004-.291-1.773-.874-2.307s-1.44-.8-2.573-.8c-.76 0-1.505.125-2.234.376-.728.25-1.343.586-1.844 1.007l-.971-1.748c.663-.534 1.456-.942 2.379-1.226a9.955 9.955 0 012.937-.424zm-.534 11.335c.89 0 1.659-.198 2.306-.595a3.403 3.403 0 001.408-1.687v-1.796h-3.593c-1.974 0-2.961.664-2.961 1.99 0 .648.25 1.157.752 1.53.502.372 1.198.558 2.088.558zm17.505-11.335c1.634 0 2.933.473 3.896 1.42.963.946 1.444 2.334 1.444 4.162v7.403h-2.33v-7.136c0-1.246-.3-2.184-.898-2.815-.6-.631-1.457-.947-2.573-.947-1.263 0-2.258.368-2.986 1.105-.729.736-1.093 1.792-1.093 3.167v6.626h-2.33v-12.864h2.233v1.942c.47-.664 1.105-1.173 1.906-1.53.8-.355 1.711-.533 2.73-.533zm15.611 13.131c-1.31 0-2.48-.283-3.507-.85a6.225 6.225 0 01-2.416-2.342c-.582-.995-.874-2.124-.874-3.386s.292-2.39.874-3.386a6.14 6.14 0 012.416-2.33c1.027-.558 2.196-.837 3.507-.837 1.166 0 2.205.234 3.12.704a5.014 5.014 0 012.124 2.038l-1.772 1.141c-.405-.615-.907-1.076-1.505-1.383a4.293 4.293 0 00-1.99-.461c-.842 0-1.6.186-2.27.558a3.978 3.978 0 00-1.579 1.59c-.38.687-.57 1.476-.57 2.366 0 .906.19 1.703.57 2.391.38.688.907 1.218 1.578 1.59.672.372 1.429.558 2.27.558.728 0 1.392-.154 1.99-.461.6-.307 1.101-.769 1.506-1.384l1.772 1.117a5.09 5.09 0 01-2.124 2.051c-.915.477-1.954.716-3.12.716zm19.957-6.505c0 .178-.016.413-.048.704h-10.439c.146 1.133.644 2.043 1.493 2.73.85.688 1.906 1.032 3.168 1.032 1.538 0 2.776-.518 3.714-1.553l1.287 1.505a5.635 5.635 0 01-2.173 1.553c-.866.356-1.833.534-2.9.534-1.36 0-2.566-.28-3.618-.837a5.973 5.973 0 01-2.44-2.343c-.574-1.003-.861-2.136-.861-3.398 0-1.246.28-2.37.837-3.374a6 6 0 012.307-2.342c.979-.558 2.083-.837 3.313-.837s2.326.279 3.29.837a5.88 5.88 0 012.257 2.342c.542 1.004.813 2.153.813 3.447zm-6.36-4.66c-1.117 0-2.051.34-2.804 1.02-.752.679-1.193 1.569-1.323 2.67h8.254c-.13-1.085-.57-1.97-1.323-2.659-.753-.687-1.687-1.031-2.804-1.031zm10.417 1.359a1.61 1.61 0 01-1.165-.473c-.324-.316-.486-.716-.486-1.202 0-.469.162-.861.486-1.177a1.61 1.61 0 011.165-.473c.453 0 .833.153 1.14.46.308.308.462.705.462 1.19 0 .486-.158.886-.473 1.202a1.541 1.541 0 01-1.13.473zm0 9.806a1.61 1.61 0 01-1.165-.473c-.324-.316-.486-.716-.486-1.202 0-.469.162-.861.486-1.177a1.61 1.61 0 011.165-.473c.453 0 .833.153 1.14.46.308.308.462.705.462 1.19 0 .486-.158.886-.473 1.202a1.541 1.541 0 01-1.13.473zm16.245-17.136v16.99h-2.403v-14.879h-3.836v-2.111h6.24zm14.374 8.082c.97.373 1.715.907 2.233 1.602.518.696.777 1.53.777 2.5 0 1.02-.275 1.906-.826 2.658-.55.753-1.335 1.331-2.354 1.736-1.02.404-2.217.607-3.593.607-1.36 0-2.545-.203-3.556-.607-1.012-.405-1.793-.983-2.343-1.736-.55-.752-.825-1.638-.825-2.658 0-.97.255-1.804.765-2.5.51-.695 1.25-1.23 2.22-1.602-.776-.372-1.367-.865-1.771-1.48-.405-.615-.607-1.343-.607-2.185 0-.938.255-1.755.764-2.451.51-.696 1.226-1.23 2.149-1.602.922-.372 1.99-.558 3.204-.558 1.23 0 2.31.186 3.24.558.931.372 1.652.906 2.161 1.602.51.696.765 1.513.765 2.451 0 .826-.206 1.55-.62 2.173-.412.623-1.006 1.12-1.783 1.492zm-3.763-6.31c-1.149 0-2.055.246-2.719.74-.663.494-.995 1.161-.995 2.002 0 .842.328 1.505.983 1.99.656.486 1.566.729 2.731.729 1.181 0 2.108-.243 2.78-.728.671-.486 1.007-1.15 1.007-1.99 0-.842-.344-1.51-1.032-2.003-.687-.494-1.606-.74-2.755-.74zm0 13.447c1.343 0 2.403-.28 3.18-.838.777-.558 1.165-1.315 1.165-2.27 0-.938-.388-1.678-1.165-2.22-.777-.542-1.837-.813-3.18-.813-1.343 0-2.395.27-3.156.813-.76.542-1.14 1.282-1.14 2.22 0 .955.38 1.712 1.14 2.27.761.558 1.813.838 3.156.838zm11.12 1.917a1.61 1.61 0 01-1.164-.473c-.324-.316-.486-.716-.486-1.202 0-.469.162-.861.486-1.177a1.61 1.61 0 011.165-.473c.453 0 .833.153 1.14.46.308.308.462.705.462 1.19 0 .486-.158.886-.473 1.202a1.541 1.541 0 01-1.13.473zm10.927-10c1.667.162 2.938.675 3.811 1.541.874.866 1.311 1.97 1.311 3.313 0 .971-.242 1.85-.728 2.634-.485.785-1.21 1.408-2.173 1.869-.962.461-2.14.692-3.532.692-1.213 0-2.379-.182-3.495-.547-1.117-.364-2.031-.87-2.743-1.517l1.116-1.917c.583.55 1.327.991 2.234 1.323.906.332 1.869.497 2.888.497 1.263 0 2.246-.267 2.95-.8.704-.535 1.056-1.27 1.056-2.21 0-.938-.348-1.666-1.044-2.184-.696-.518-1.748-.777-3.156-.777h-1.36v-1.699l4.273-5.243h-8.18v-2.111h11.215v1.65l-4.443 5.486zm22.433 5.68h-3.228v4.174h-2.355v-4.174h-9.443v-1.7l8.69-11.116h2.622l-8.326 10.728h6.53v-3.69h2.282v3.69h3.228v2.088zm12.359-4.734c.97.373 1.715.907 2.233 1.602.518.696.777 1.53.777 2.5 0 1.02-.275 1.906-.825 2.658-.55.753-1.336 1.331-2.355 1.736-1.02.404-2.217.607-3.593.607-1.36 0-2.545-.203-3.556-.607-1.012-.405-1.792-.983-2.343-1.736-.55-.752-.825-1.638-.825-2.658 0-.97.255-1.804.765-2.5.51-.695 1.25-1.23 2.22-1.602-.776-.372-1.367-.865-1.771-1.48-.405-.615-.607-1.343-.607-2.185 0-.938.255-1.755.765-2.451.51-.696 1.225-1.23 2.148-1.602.922-.372 1.99-.558 3.204-.558 1.23 0 2.31.186 3.24.558.931.372 1.652.906 2.161 1.602.51.696.765 1.513.765 2.451 0 .826-.206 1.55-.619 2.173-.413.623-1.007 1.12-1.784 1.492zm-3.763-6.31c-1.149 0-2.055.246-2.719.74-.663.494-.995 1.161-.995 2.002 0 .842.328 1.505.983 1.99.656.486 1.566.729 2.731.729 1.182 0 2.108-.243 2.78-.728.671-.486 1.007-1.15 1.007-1.99 0-.842-.344-1.51-1.032-2.003-.687-.494-1.606-.74-2.755-.74zm0 13.447c1.343 0 2.403-.28 3.18-.838.777-.558 1.165-1.315 1.165-2.27 0-.938-.388-1.678-1.165-2.22-.777-.542-1.837-.813-3.18-.813-1.343 0-2.395.27-3.156.813-.76.542-1.14 1.282-1.14 2.22 0 .955.38 1.712 1.14 2.27.761.558 1.813.838 3.156.838zm24.06-2.403h-3.23v4.174h-2.354v-4.174h-9.443v-1.7l8.69-11.116h2.622l-8.326 10.728h6.53v-3.69h2.282v3.69h3.228v2.088zm8.668 4.369c-1.343 0-2.536-.344-3.58-1.032-1.044-.688-1.865-1.687-2.464-2.998-.599-1.31-.898-2.864-.898-4.66 0-1.796.3-3.35.898-4.66.599-1.31 1.42-2.31 2.464-2.998 1.044-.688 2.237-1.031 3.58-1.031 1.327 0 2.513.343 3.557 1.031s1.865 1.687 2.464 2.998c.598 1.31.898 2.864.898 4.66 0 1.796-.3 3.35-.898 4.66-.6 1.311-1.42 2.31-2.464 2.998-1.044.688-2.23 1.032-3.557 1.032zm0-2.16c1.36 0 2.448-.559 3.265-1.675.818-1.117 1.226-2.735 1.226-4.855 0-2.12-.408-3.738-1.226-4.854-.817-1.117-1.905-1.675-3.265-1.675-1.375 0-2.472.558-3.289 1.675-.817 1.116-1.226 2.734-1.226 4.854s.409 3.738 1.226 4.855c.817 1.116 1.914 1.674 3.29 1.674zm30.034-.146v2.111h-12.332v-16.99h11.992v2.111h-9.564v5.219h8.52v2.063h-8.52v5.486h9.904zm16.534 0v2.111h-12.332v-16.99h11.992v2.111h-9.564v5.219h8.52v2.063h-8.52v5.486h9.904zm14.69 2.111l-5.099-7.014-5.025 7.014h-2.791l6.384-8.713-5.996-8.277h2.768l4.758 6.529 4.709-6.53h2.646l-5.996 8.205 6.433 8.786h-2.792z" fill="#FFF" fill-rule="nonzero" opacity=".401"/> <g transform="translate(155.834 807.056)" id="send-money"> <rect fill="url(#send-money-f)" width="384.355" height="80.908" rx="40"/> <g fill-rule="nonzero"> <use fill="#000" filter="url(#send-money-g)" xlink:href="#send-money-h"/> <use fill="#FFF" xlink:href="#send-money-h"/> </g> </g> </g> </g></svg>