<svg viewBox="0 0 686 958" xmlns="http://www.w3.org/2000/svg" xmlns:xlink="http://www.w3.org/1999/xlink"> <defs> <linearGradient x1="40.969%" y1="7.971%" x2="63.36%" y2="109.64%" id="send-done-d"> <stop stop-color="#4D128B" offset="0%"/> <stop stop-color="#9C53B7" offset="100%"/> </linearGradient> <linearGradient x1="-13.346%" y1="75.789%" x2="108.784%" y2="15.594%" id="send-done-e"> <stop stop-color="#FFEB4F" offset="0%"/> <stop stop-color="#00E300" offset="100%"/> </linearGradient> <path id="a" d="M0 0h686v958H0z"/> <path d="M181.44 79.945l-19.57-19.453c-.547-.547-.82-1.25-.82-2.11 0-.859.273-1.562.82-2.109l4.336-4.218c.547-.625 1.23-.938 2.051-.938.82 0 1.543.313 2.168.938L183.55 65.18l28.125-28.125c.625-.625 1.348-.938 2.168-.938.82 0 1.504.313 2.05.938l4.337 4.218c.547.547.82 1.25.82 2.11 0 .86-.273 1.562-.82 2.11l-34.57 34.452c-.548.625-1.25.938-2.11.938-.86 0-1.562-.313-2.11-.938z" id="send-done-g"/> <filter x="-50.8%" y="-65.9%" width="201.7%" height="236.3%" filterUnits="objectBoundingBox" id="send-done-f"> <feOffset dy="1" in="SourceAlpha" result="shadowOffsetOuter1"/> <feGaussianBlur stdDeviation="10" in="shadowOffsetOuter1" result="shadowBlurOuter1"/> <feColorMatrix values="0 0 0 0 0 0 0 0 0 0 0 0 0 0 0 0 0 0 0.193373033 0" in="shadowBlurOuter1"/> </filter> <rect id="send-done-c" x="0" y="0" width="687" height="1498" rx="50"/> </defs> <g fill="none" fill-rule="evenodd"> <g mask="url(#send-done-b)"> <path d="M172.984 312.672c-9.632 0-16.8-7.336-16.8-20.272 0-12.936 7.168-20.272 16.8-20.272 9.688 0 16.8 7.336 16.8 20.272 0 12.936-7.112 20.272-16.8 20.272zm0-7.672c4.536 0 7.672-3.696 7.672-12.6s-3.136-12.6-7.672-12.6c-4.48 0-7.616 3.696-7.616 12.6s3.136 12.6 7.616 12.6zm26.648 7.448c-3.024 0-5.432-2.296-5.432-5.488 0-3.248 2.408-5.376 5.432-5.376 3.024 0 5.432 2.128 5.432 5.376 0 3.192-2.408 5.488-5.432 5.488zm29.392-23.688c7.056 1.12 10.64 5.488 10.64 11.256 0 6.608-5.096 12.656-16.24 12.656-5.488 0-11.144-1.512-14.952-4.2l3.528-6.944c2.968 2.24 7.112 3.528 11.2 3.528 4.536 0 7.336-1.848 7.336-5.04 0-2.968-2.184-4.816-7.336-4.816h-4.144v-5.992l8.064-9.128h-16.688v-7.28h27.44v5.88l-8.848 10.08zm51.736 7.616v7.392h-6.384V312h-8.848v-8.232h-21.112v-6.104l18.48-24.864h9.52l-17.136 23.576h10.528v-7.336h8.568v7.336h6.384zm31.072-4.984c3.808 1.904 5.992 5.04 5.992 9.24 0 7.392-6.608 12.04-16.576 12.04-9.912 0-16.464-4.648-16.464-12.04 0-4.2 2.184-7.336 5.936-9.24-2.912-1.792-4.536-4.536-4.536-8.064 0-6.888 6.16-11.2 15.064-11.2 9.016 0 15.176 4.312 15.176 11.2 0 3.528-1.68 6.272-4.592 8.064zm-10.584-12.6c-3.64 0-6.048 1.848-6.048 4.928 0 2.968 2.352 4.816 6.048 4.816 3.752 0 6.16-1.848 6.16-4.816 0-3.08-2.464-4.928-6.16-4.928zm0 27.216c4.536 0 7.392-2.184 7.392-5.656 0-3.472-2.856-5.6-7.392-5.6-4.48 0-7.28 2.128-7.28 5.6 0 3.472 2.8 5.656 7.28 5.656zm57.616-9.632v7.392h-6.384V312h-8.848v-8.232H322.52v-6.104L341 272.8h9.52l-17.136 23.576h10.528v-7.336h8.568v7.336h6.384zm20.488 16.296c-9.632 0-16.8-7.336-16.8-20.272 0-12.936 7.168-20.272 16.8-20.272 9.688 0 16.8 7.336 16.8 20.272 0 12.936-7.112 20.272-16.8 20.272zm0-7.672c4.536 0 7.672-3.696 7.672-12.6s-3.136-12.6-7.672-12.6c-4.48 0-7.616 3.696-7.616 12.6s3.136 12.6 7.616 12.6zm70.992 3.416V312h-27.72v-39.2h26.88v3.584h-22.736v13.944h20.272v3.528h-20.272v14.56h23.576zm38.464 0V312h-27.72v-39.2h26.88v3.584h-22.736v13.944h20.272v3.528h-20.272v14.56h23.576zM524.136 312l-12.656-17.248L498.88 312h-4.76l14.896-20.16-13.944-19.04h4.76l11.816 16.016 11.76-16.016h4.48L514 291.728 528.952 312h-4.816z" fill="#FFF" fill-rule="nonzero"/> </g> <g transform="translate(155 458)" id="done-btn"> <rect fill="#FFF" opacity=".247" y="306" width="380" height="80" rx="40"/> </g> <g transform="translate(210 538)"> <g id="done-check"> <circle fill="url(#send-done-e)" cx="190" cy="60" r="60"/> <g fill-rule="nonzero"> <use fill="#000" filter="url(#send-done-f)" xlink:href="#send-done-g"/> <use fill="#FFF" xlink:href="#send-done-g"/> </g> </g> </g> </g></svg>