<svg viewBox="0 0 133 50" xmlns="http://www.w3.org/2000/svg"><g fill="#FFF" fill-rule="evenodd"><path d="M3.484 48.653l-1.316 1.344-.003-.002-.005.004a7.521 7.521 0 01-2.144-5.773 7.567 7.567 0 012.145-4.87L14.016 27.25a3.56 3.56 0 00.853-1.422 3.587 3.587 0 00-.904-3.44l-11.66-11.82C-.57 7.654-.574 2.922 2.298 0l16.866 17.1c4.243 4.3 4.249 11.28.013 15.589L3.484 48.653zM49.976 5.882a7.565 7.565 0 01-2.139 4.76L35.983 22.75a3.57 3.57 0 00-.85 1.41 3.586 3.586 0 00.9 3.451l11.661 11.821c2.877 2.916 2.881 7.648.01 10.569L30.835 32.9c-4.243-4.3-4.248-11.28-.012-15.589L46.417 1.446 47.831.002l.002.003.005-.005a7.512 7.512 0 012.138 5.882zM8.308 22.298c.776.78 1.08 1.918.796 2.985a3.08 3.08 0 01-2.168 2.187 3.055 3.055 0 01-2.966-.798 3.106 3.106 0 01-.003-4.37 3.054 3.054 0 014.34-.004zm33.514 4.374a3.106 3.106 0 01-.004-4.371 3.055 3.055 0 014.342-.004c.776.78 1.08 1.918.797 2.985a3.08 3.08 0 01-2.17 2.187 3.055 3.055 0 01-2.965-.797z"/><path d="M68.781 10.4h-4.313v3.527h5.01V15h-6.323V5.047h6.255v1.08h-4.942v3.2h4.313v1.072zm9.208-4.273H74.79V15h-1.306V6.127h-3.192v-1.08h7.697v1.08zM87.115 15h-1.32v-4.6h-5.017V15h-1.312V5.047h1.312v4.28h5.018v-4.28h1.32V15zm7.957-4.6H90.76v3.527h5.01V15h-6.323V5.047h6.255v1.08H90.76v3.2h4.313v1.072zm5.982.574h-2.338V15h-1.32V5.047h3.295c1.122 0 1.984.255 2.588.766.604.51.906 1.253.906 2.228 0 .62-.168 1.16-.503 1.62-.335.46-.8.804-1.398 1.032l2.338 4.225V15h-1.408l-2.16-4.026zM98.716 9.9h2.016c.652 0 1.17-.168 1.556-.505.385-.338.577-.789.577-1.354 0-.615-.183-1.087-.55-1.415-.367-.328-.897-.494-1.59-.499h-2.01V9.9zm12.933.5h-4.313v3.527h5.01V15h-6.323V5.047h6.255v1.08h-4.942v3.2h4.313v1.072zm9.338-5.353v6.767c-.004.94-.3 1.707-.885 2.304-.586.597-1.38.932-2.382 1.005l-.349.014c-1.09 0-1.957-.294-2.604-.882-.648-.588-.976-1.397-.985-2.427V5.047h1.3v6.74c0 .72.197 1.28.594 1.678.396.4.961.598 1.695.598.743 0 1.311-.198 1.706-.594.394-.397.591-.955.591-1.675V5.047h1.32zm3.767 0l3.254 8.121 3.254-8.121h1.702V15h-1.313v-3.876l.123-4.184-3.267 8.06h-1.005l-3.26-8.04.13 4.164V15h-1.313V5.047h1.695zM68.78 25.399h-4.313v3.528h5.01V30h-6.323v-9.953h6.255v1.08h-4.942v3.2h4.313v1.072zm5.578-1.538l2.386-3.814h1.545l-3.144 4.935L78.366 30h-1.56l-2.447-3.883L71.9 30h-1.552l3.226-5.018-3.151-4.935h1.538l2.4 3.814zm6.843 2.243V30H79.89v-9.953h3.67c1.09 0 1.943.278 2.56.834.618.556.927 1.292.927 2.208 0 .966-.302 1.71-.906 2.232-.604.522-1.468.783-2.594.783h-2.345zm0-1.074h2.359c.701 0 1.24-.165 1.613-.495.374-.33.56-.808.56-1.432 0-.593-.186-1.067-.56-1.422-.374-.356-.887-.54-1.538-.554h-2.434v3.903zm11.17.944h-2.338V30h-1.32v-9.953h3.296c1.12 0 1.983.255 2.587.765.604.51.906 1.254.906 2.229 0 .62-.168 1.16-.503 1.62-.334.46-.8.804-1.397 1.032l2.337 4.225V30h-1.408l-2.16-4.026zM90.034 24.9h2.017c.651 0 1.17-.168 1.555-.505.385-.338.578-.789.578-1.354 0-.615-.184-1.087-.55-1.415-.368-.328-.897-.494-1.59-.499h-2.01V24.9zm12.934.5h-4.314v3.527h5.011V30h-6.323v-9.953h6.255v1.08h-4.943v3.2h4.314v1.072zm5.263.163c-1.125-.323-1.944-.72-2.457-1.192a2.28 2.28 0 01-.77-1.747c0-.784.314-1.432.94-1.945.627-.512 1.442-.769 2.445-.769.683 0 1.293.132 1.828.397.536.264.95.629 1.244 1.093.294.465.441.973.441 1.525h-1.319c0-.602-.191-1.075-.574-1.419-.383-.344-.923-.516-1.62-.516-.647 0-1.152.143-1.514.427-.363.285-.544.68-.544 1.187 0 .405.172.748.516 1.028.344.28.93.537 1.757.77.827.232 1.474.488 1.941.768.468.28.814.608 1.04.981.225.374.338.814.338 1.32 0 .806-.315 1.452-.944 1.938-.628.485-1.47.728-2.522.728a4.678 4.678 0 01-1.914-.393c-.592-.262-1.05-.621-1.37-1.077a2.627 2.627 0 01-.483-1.552h1.32c0 .602.222 1.077.666 1.426.445.348 1.038.522 1.781.522.693 0 1.224-.14 1.593-.423s.554-.668.554-1.156c0-.487-.171-.864-.513-1.131-.342-.267-.962-.53-1.86-.79zm8.306 0c-1.126-.323-1.945-.72-2.457-1.192a2.28 2.28 0 01-.77-1.747c0-.784.314-1.432.94-1.945.627-.512 1.442-.769 2.444-.769.684 0 1.293.132 1.829.397.535.264.95.629 1.244 1.093.294.465.441.973.441 1.525h-1.32c0-.602-.19-1.075-.574-1.419-.382-.344-.922-.516-1.62-.516-.647 0-1.152.143-1.514.427-.362.285-.543.68-.543 1.187 0 .405.172.748.516 1.028.344.28.93.537 1.757.77.827.232 1.474.488 1.941.768.467.28.814.608 1.04.981.225.374.338.814.338 1.32 0 .806-.315 1.452-.944 1.938-.629.485-1.47.728-2.522.728a4.678 4.678 0 01-1.914-.393c-.593-.262-1.05-.621-1.371-1.077a2.627 2.627 0 01-.482-1.552h1.32c0 .602.222 1.077.666 1.426.444.348 1.038.522 1.78.522.693 0 1.224-.14 1.593-.423.37-.283.554-.668.554-1.156 0-.487-.17-.864-.513-1.131-.341-.267-.961-.53-1.859-.79zm-46.06 16.279c-.123 1.053-.512 1.865-1.166 2.437-.654.572-1.523.858-2.608.858-1.176 0-2.118-.422-2.827-1.265-.708-.843-1.063-1.971-1.063-3.384v-.957c0-.925.166-1.738.496-2.44.33-.702.799-1.24 1.405-1.617.606-.376 1.308-.564 2.105-.564 1.058 0 1.905.295 2.543.885.638.59 1.01 1.407 1.115 2.451h-1.32c-.114-.793-.36-1.367-.741-1.723-.381-.355-.913-.533-1.597-.533-.838 0-1.496.31-1.972.93-.476.62-.714 1.502-.714 2.645v.964c0 1.08.225 1.94.677 2.577.45.638 1.082.957 1.893.957.73 0 1.289-.165 1.678-.495.39-.33.649-.906.776-1.726h1.32zm9.447-1.497c0 .975-.164 1.826-.492 2.553-.328.727-.793 1.282-1.395 1.664-.601.383-1.303.575-2.105.575-.784 0-1.48-.193-2.085-.578-.606-.385-1.077-.934-1.412-1.647-.335-.714-.507-1.54-.516-2.478v-.718c0-.957.166-1.803.499-2.536.333-.734.803-1.296 1.412-1.685.608-.39 1.304-.585 2.088-.585.797 0 1.5.193 2.109.578.608.385 1.077.943 1.405 1.675.328.731.492 1.582.492 2.553v.629zm-1.306-.643c0-1.18-.237-2.086-.71-2.717-.475-.631-1.138-.947-1.99-.947-.83 0-1.482.316-1.959.947-.476.631-.72 1.507-.734 2.628v.732c0 1.144.24 2.043.72 2.697.482.653 1.144.98 1.987.98.847 0 1.504-.308 1.968-.926.465-.617.704-1.503.718-2.656v-.738zM83.301 45h-1.313v-9.953h1.313V45zm10.049 0h-1.32l-5.01-7.67V45H85.7v-9.953h1.32l5.024 7.704v-7.704h1.306V45z" fill-rule="nonzero"/></g></svg>